<svg id="Layer_1" data-name="Layer 1" xmlns="http://www.w3.org/2000/svg" viewBox="0 0 1000 1000"><defs><style>.cls-1{fill:#fff;}</style></defs><path class="cls-1" d="M181.19,632.9c-.59-1.95-.87-1.87-1.46-3.82s-.36-2-.95-4-.71-1.91-1.3-3.86a1.65,1.65,0,0,0-1.35-1.19c-1.76-.19-1.75-.34-3.52-.48s-1.77,0-3.54-.15-1.77-.1-3.54-.25-1.74-.36-3.51-.51-1.78,0-3.54-.15-1.76-.32-3.52-.46l-3.54-.28-3.54-.31c-1.77-.15-1.77-.16-3.54-.29a.66.66,0,0,1-.75-.48c-.11-.34.07-.59.39-.77,1.41-1.07,1.2-1.35,2.59-2.44s1.45-1,2.85-2.11,1.31-1.19,2.71-2.28,1.56-.87,3-2,1.24-1.3,2.63-2.39,1.51-1,2.91-2,1.33-1.18,2.72-2.27,1.37-1.13,2.77-2.22,1.57-.88,3-2a1.92,1.92,0,0,0,.49-2c-.47-1.58-.53-1.56-1-3.14s-.5-1.57-1-3.15-.53-1.57-1-3.15a1.9,1.9,0,0,0-1.36-1.39c-1.76-.17-1.76-.17-3.52-.29s-1.77,0-3.53-.11-1.78,0-3.54-.11-1.75-.14-3.51-.27-1.75-.38-3.51-.51-1.78.18-3.54.05-1.75-.31-3.51-.43-1.77-.1-3.53-.23-1.75-.35-3.52-.46a.62.62,0,0,1-.7-.47,1,1,0,0,1,.16-1c1.38-1.1,1.36-1.14,2.75-2.23s1.53-.91,2.93-2,1.44-1,2.84-2.12l2.79-2.18c1.39-1.09,1.33-1.18,2.72-2.27s1.42-1,2.82-2.14,1.27-1.25,2.67-2.34,1.55-.9,2.94-2,1.21-1.35,2.6-2.45a1.44,1.44,0,0,0,.51-1.66c-.54-1.81-.33-1.88-.87-3.68s-.73-1.76-1.27-3.57-.57-1.8-1.11-3.61-.57-1.81-1.11-3.62-.34-1.88-.88-3.69a1.79,1.79,0,0,0-3-.61c-1.33,1.16-1.33,1.17-2.69,2.3s-1.41,1.07-2.78,2.2-1.48,1-2.84,2.12-1.19,1.35-2.56,2.48-1.56.89-2.93,2-1.38,1.11-2.74,2.24-1.31,1.21-2.68,2.33-1.35,1.16-2.71,2.29-1.27,1.26-2.64,2.38S124.37,560.9,123,562s-1.46,1-2.83,2.16-1.34,1.16-2.71,2.29-1.31,1.19-2.68,2.32-1.34,1.17-2.71,2.3-1.41,1.08-2.78,2.21-1.52,1-2.89,2.08-1.4,1.09-2.78,2.22-1.23,1.3-2.6,2.44a1.47,1.47,0,0,0-.36,1.66c.49,1.63.2,1.71.69,3.33s.49,1.62,1,3.25.68,1.57,1.16,3.19a1.49,1.49,0,0,0,1.31,1.1c1.86.18,1.87.08,3.72.25s1.85.28,3.7.45,1.85.22,3.71.39,1.83.38,3.69.55,1.86.09,3.71.26,1.88-.07,3.74.1,1.82.49,3.68.66,1.88,0,3.74.16c.39.06.51.31.64.74s0,.49-.26.76c-1.44,1.2-1.4,1.25-2.85,2.44s-1.33,1.33-2.77,2.52-1.41,1.24-2.85,2.43-1.52,1.11-3,2.3L120.56,609c-1.44,1.19-1.47,1.16-2.92,2.35s-1.36,1.3-2.81,2.49-1.62,1-3.07,2.17a1.69,1.69,0,0,0-.34,1.8c.5,1.68.4,1.71.9,3.39s.63,1.64,1.14,3.32.29,1.74.79,3.42a1.65,1.65,0,0,0,1.49,1c1.76.17,1.75.25,3.51.41s1.74.34,3.5.51,1.76.1,3.51.26l3.52.33c1.75.17,1.75.24,3.5.4s1.75.25,3.51.42,1.79-.16,3.54,0,1.75.26,3.51.43,1.75.19,3.51.36,1.77,0,3.53.2,1.75.28,3.51.45,1.74.36,3.49.53,1.79-.14,3.55,0,1.73.42,3.49.59l3.52.35c1.76.17,1.77,0,3.53.21l3.52.33c1.76.17,1.75.29,3.5.51A1.94,1.94,0,0,0,181.19,632.9Z"/><path class="cls-1" d="M201.58,722.82a33.1,33.1,0,0,0,2.79-2.18,37.6,37.6,0,0,0,5.16-4.83A29.36,29.36,0,0,0,211.7,713a30.52,30.52,0,0,0,1.56-3.2,28.43,28.43,0,0,0,1.26-3.3,29.75,29.75,0,0,0,1-3.41,30.9,30.9,0,0,0,.52-3.51,32.45,32.45,0,0,0,0-3.55c0-1.16-.16-2.33-.32-3.53s-.19-2.34-.46-3.52-.58-2.28-.95-3.43-.77-2.21-1.23-3.34-.92-2.15-1.45-3.24-1.17-2-1.76-3.08-1.09-2.08-1.75-3.1-1.45-1.9-2.13-2.83-1.44-1.9-2.17-2.79-1.49-1.87-2.28-2.71-1.7-1.68-2.55-2.46-1.66-1.73-2.58-2.44-2-1.34-3-2a33.23,33.23,0,0,0-3-1.84,32.7,32.7,0,0,0-3.31-1.28,30.27,30.27,0,0,0-3.41-.93,28.53,28.53,0,0,0-3.45-.78,26.36,26.36,0,0,0-3.55-.15,26.09,26.09,0,0,0-7,.84,31.74,31.74,0,0,0-3.35,1.18A34.2,34.2,0,0,0,163,656c-1,.53-2,1.31-3,2s-1.94,1.34-2.86,2.06a33.31,33.31,0,0,0-2.71,2.28,30.79,30.79,0,0,0-2.39,2.6,26,26,0,0,0-3.69,6,28.31,28.31,0,0,0-1.46,3.22,29.75,29.75,0,0,0-1,3.41,33.82,33.82,0,0,0-.28,3.54,31.84,31.84,0,0,0,0,3.53c0,1.16.09,2.33.25,3.52s.18,2.35.45,3.53.59,2.26,1,3.41.73,2.23,1.19,3.35,1,2.12,1.53,3.2,1.2,2,1.79,3.06,1.09,2.07,1.74,3.09,1.2,2.08,1.88,3,1.61,1.78,2.34,2.68,1.54,1.83,2.33,2.67,1.69,1.67,2.55,2.45,1.71,1.67,2.62,2.38,1.93,1.41,2.91,2a33.76,33.76,0,0,0,3.11,1.69,31.47,31.47,0,0,0,3.24,1.41,30.42,30.42,0,0,0,3.4,1,29.25,29.25,0,0,0,7,1.06,30,30,0,0,0,3.54-.31,29.68,29.68,0,0,0,3.44-.83,25,25,0,0,0,6.61-2.47A35,35,0,0,0,201.58,722.82Zm-36.9-22.24a17.53,17.53,0,0,1-1.79-3.11A17.24,17.24,0,0,1,162,694a15.76,15.76,0,0,1-.06-3.57,15.35,15.35,0,0,1,.73-3.47,16.52,16.52,0,0,1,1.2-3.34,18.27,18.27,0,0,1,2-3,21.05,21.05,0,0,1,2.59-2.46,25.58,25.58,0,0,1,2.89-2.09c.22-.14.16-.24.38-.39a25.69,25.69,0,0,1,3.12-1.73,21.41,21.41,0,0,1,3.41-1.05,17.44,17.44,0,0,1,3.48-.58,16.6,16.6,0,0,1,3.54.12,15.43,15.43,0,0,1,3.41.91,12.82,12.82,0,0,1,5.87,3.9,17.5,17.5,0,0,1,2.34,2.68,18.18,18.18,0,0,1,1.65,3.19,17.91,17.91,0,0,1,.87,3.48,16.37,16.37,0,0,1,.23,3.57,16.17,16.17,0,0,1-.79,3.48,16.38,16.38,0,0,1-1.26,3.32,18.16,18.16,0,0,1-2.07,2.89,20.82,20.82,0,0,1-2.39,2.64,27.05,27.05,0,0,1-2.82,2.21c-.23.14-.32,0-.55.14a24.52,24.52,0,0,1-3.11,1.75,20.39,20.39,0,0,1-3.38,1.14,18.44,18.44,0,0,1-3.5.56,17.57,17.57,0,0,1-3.56,0,16,16,0,0,1-3.41-1,16.56,16.56,0,0,1-3.26-1.47,17.93,17.93,0,0,1-2.77-2.29A17.17,17.17,0,0,1,164.68,700.58Z"/><path class="cls-1" d="M220.32,787.93c.88.82,1.8,1.58,2.69,2.32s1.9,1.46,2.83,2.14,1.95,1.4,2.92,2,2,1.35,3,1.89,2.2,1,3.26,1.43,2.19,1,3.29,1.34a88,88,0,0,0,7,1.44,30,30,0,0,0,3.55,0,27.74,27.74,0,0,0,3.54-.11,28.37,28.37,0,0,0,3.46-.75,30.47,30.47,0,0,0,3.42-1,31.45,31.45,0,0,0,3.15-1.64,32.57,32.57,0,0,0,3-1.89,31.92,31.92,0,0,0,2.78-2.2,34.69,34.69,0,0,0,2.54-2.47c.81-.88,1.57-1.78,2.28-2.71a33.72,33.72,0,0,0,2-2.91,32.57,32.57,0,0,0,1.7-3.12,30.83,30.83,0,0,0,1.26-3.31,29.33,29.33,0,0,0,.69-3.48,27.24,27.24,0,0,0,.46-3.5,27.64,27.64,0,0,0,.11-3.53,30.49,30.49,0,0,0-.34-3.54,31.8,31.8,0,0,0-.74-3.48,32.75,32.75,0,0,0-1.17-3.36c-.43-1.07-1.15-2-1.71-3.11s-1.06-2.08-1.71-3.1-1.14-2-1.86-3-1.55-1.77-2.33-2.69-1.43-1.86-2.27-2.74-1.69-1.62-2.58-2.44-1.79-1.59-2.68-2.33-1.84-1.53-2.77-2.22-2.07-1.2-3-1.82-2-1.29-3-1.83-2.12-1.09-3.18-1.54-2.2-.94-3.3-1.3a51.18,51.18,0,0,0-6.91-1.54,30,30,0,0,0-3.55,0,29.31,29.31,0,0,0-3.52.21,28.23,28.23,0,0,0-3.45.76,30.87,30.87,0,0,0-3.42.94,30.3,30.3,0,0,0-3.21,1.52,34.61,34.61,0,0,0-2.91,2,35.42,35.42,0,0,0-2.89,2.06c-.87.77-1.6,1.72-2.42,2.59s-1.65,1.72-2.36,2.65a32.7,32.7,0,0,0-1.94,3,30,30,0,0,0-1.56,3.17A28.79,28.79,0,0,0,207,750a28.17,28.17,0,0,0-.85,3.43,25.37,25.37,0,0,0-.45,3.5,29.64,29.64,0,0,0-.05,3.53A30.45,30.45,0,0,0,206,764a34.19,34.19,0,0,0,1,3.4c.33,1.11.68,2.23,1.13,3.35s.92,2.14,1.47,3.22,1,2.13,1.63,3.15,1.28,2,2,2.93,1.53,1.77,2.31,2.69,1.63,1.67,2.47,2.54S219.43,787.11,220.32,787.93Zm9.44-35.19c.19-.19.16-.22.34-.41a25.89,25.89,0,0,1,2.56-2.49,20.94,20.94,0,0,1,3-2,17.92,17.92,0,0,1,3.29-1.34,17,17,0,0,1,3.44-.86,22.83,22.83,0,0,1,7,.81,16.58,16.58,0,0,1,3.17,1.61,12.27,12.27,0,0,1,5.2,4.79,17.28,17.28,0,0,1,1.81,3.08,24.81,24.81,0,0,1,1.38,7,16.79,16.79,0,0,1-.47,3.54,17.41,17.41,0,0,1-1.19,3.37,21,21,0,0,1-1.79,3.1,26.37,26.37,0,0,1-2.25,2.78c-.18.2-.22.16-.4.36a26.55,26.55,0,0,1-2.64,2.41,21.41,21.41,0,0,1-2.94,2,18.81,18.81,0,0,1-3.2,1.61,16.56,16.56,0,0,1-3.52.72,15.91,15.91,0,0,1-3.59-.13,16.35,16.35,0,0,1-3.45-.89,16.83,16.83,0,0,1-3.17-1.6,17.33,17.33,0,0,1-2.8-2.17,17.74,17.74,0,0,1-2.56-2.49,17,17,0,0,1-1.72-3.14,16.41,16.41,0,0,1-.9-3.44,15.94,15.94,0,0,1-.43-3.53,16.44,16.44,0,0,1,.66-3.5,17.92,17.92,0,0,1,1.14-3.35,22.17,22.17,0,0,1,1.77-3.09A26.32,26.32,0,0,1,229.76,752.74Z"/><path class="cls-1" d="M276.53,831.56c1.61.88,1.55,1,3.16,1.86l3.21,1.73c1.6.88,1.59.9,3.2,1.77s1.57.92,3.18,1.8,1.57.93,3.18,1.8,1.61.86,3.22,1.73,1.62.85,3.23,1.72,1.64.82,3.25,1.7c1,.56,2,1.17,3.07,1.68s2.14,1,3.2,1.43,2.26.66,3.35,1,2.16,1,3.27,1.28,2.3.54,3.43.76,2.35.16,3.5.28a34.66,34.66,0,0,0,3.48.33,31.39,31.39,0,0,0,3.51-.15,26.7,26.7,0,0,0,3.4-.82,16.66,16.66,0,0,0,6.6-2.28,25.48,25.48,0,0,0,2.92-1.94,27.08,27.08,0,0,0,2.55-2.39,29.15,29.15,0,0,0,2.4-2.54,32.94,32.94,0,0,0,2.1-2.8c.62-.94,1.24-1.93,1.81-3s1.16-2.07,1.61-3.11a32,32,0,0,0,1-3.34,30.26,30.26,0,0,0,1-3.35,28.66,28.66,0,0,0,.57-3.46,25.42,25.42,0,0,0-.15-3.5,23.54,23.54,0,0,0-1.37-6.84,27.52,27.52,0,0,0-1.45-3.18,32.67,32.67,0,0,0-1.65-3.08,34.45,34.45,0,0,0-2-2.91c-.72-.9-1.58-1.71-2.39-2.56s-1.61-1.68-2.49-2.47-1.84-1.41-2.77-2.13-1.81-1.45-2.78-2.12-2-1.23-3-1.85-2-1.24-3-1.8c-1.6-.87-1.54-1-3.15-1.85s-1.66-.78-3.26-1.65-1.52-1-3.12-1.9-1.69-.72-3.3-1.6-1.62-.84-3.22-1.72-1.59-.9-3.2-1.77-1.57-.94-3.18-1.81-1.64-.82-3.25-1.7a1.67,1.67,0,0,0-2.29.76c-.88,1.61-1,1.52-1.92,3.14s-.83,1.63-1.71,3.25-1,1.56-1.86,3.17-.7,1.71-1.58,3.33-.93,1.58-1.8,3.2-.86,1.62-1.74,3.24-1,1.57-1.84,3.19-.84,1.63-1.72,3.24-1,1.57-1.86,3.18-.7,1.71-1.58,3.33-1,1.56-1.86,3.17-.93,1.59-1.81,3.21-.83,1.64-1.71,3.26-.79,1.66-1.67,3.27-.87,1.63-1.76,3.25l-1.76,3.23A1.62,1.62,0,0,0,276.53,831.56Zm23.9-3.1c.9-1.65,1-1.6,1.9-3.25s.89-1.66,1.79-3.31.92-1.64,1.82-3.3.95-1.62,1.85-3.27,1-1.62,1.86-3.28.88-1.66,1.78-3.31.87-1.67,1.77-3.33.84-1.68,1.75-3.34,1-1.61,1.88-3.27a.71.71,0,0,1,1.06-.31c1.72.94,1.83.75,3.55,1.69s1.6,1.16,3.32,2.1a20.86,20.86,0,0,1,3,1.89,18.75,18.75,0,0,1,2.73,2.26,16.45,16.45,0,0,1,1.9,3,15.7,15.7,0,0,1,1.3,3.27,17.36,17.36,0,0,1,.81,3.44,18.26,18.26,0,0,1-.4,3.52,19.07,19.07,0,0,1-.79,3.42,20.53,20.53,0,0,1-1.36,3.24,20.21,20.21,0,0,1-1.82,3,19.76,19.76,0,0,1-2.49,2.52,18.21,18.21,0,0,1-2.91,2,17,17,0,0,1-3.25,1.38,16.53,16.53,0,0,1-3.48.57,16,16,0,0,1-3.54.07,18.34,18.34,0,0,1-3.41-1,21,21,0,0,1-3.18-1.54c-1.72-.93-1.79-.81-3.51-1.75s-1.71-1-3.43-1.91A.94.94,0,0,1,300.43,828.46Z"/><path class="cls-1" d="M445.07,894c1.21.17,2.4.24,3.56.34s2.42,0,3.58,0,2.42.08,3.58,0,2.41-.14,3.56-.28,2.4-.32,3.53-.57a28.86,28.86,0,0,0,3.41-1,25.77,25.77,0,0,0,3.29-1.38,21.55,21.55,0,0,0,3.16-1.69,18.31,18.31,0,0,0,2.48-2.58,16.46,16.46,0,0,0,2.13-2.84,16.9,16.9,0,0,0,1.55-3.2,19.37,19.37,0,0,0,.7-3.5,1.1,1.1,0,0,1,0-.18,15.12,15.12,0,0,0,.05-3.61A13.36,13.36,0,0,0,479,870a14.65,14.65,0,0,0-1.93-3.09,19,19,0,0,0-2.34-2.77,28.4,28.4,0,0,0-2.88-2.21c-1-.69-1.86-1.54-2.93-2.17s-2.18-1-3.28-1.58-2.2-1-3.32-1.49-2.22-1-3.35-1.43-2.26-.92-3.38-1.34-2.3-.9-3.4-1.3-2.39-.72-3.47-1.13-2.37-.88-3.39-1.33a19.74,19.74,0,0,1-3.11-1.87c-1.34-.9-2.25-1.75-2.11-2.77a3.29,3.29,0,0,1,2.4-2.63,9.31,9.31,0,0,1,3.65-.7,28.4,28.4,0,0,1,3.76.32c1.16.16,2.41.47,3.73.77s2.46.45,3.71.83,2.37.89,3.57,1.35,2.36.93,3.51,1.48a37.19,37.19,0,0,1,3.33,1.85,31.41,31.41,0,0,1,3.11,2.18,1.78,1.78,0,0,0,1,.37,1.69,1.69,0,0,0,1.67-.63c1.1-1.37,1-1.48,2.07-2.84l2.22-2.72c1.1-1.36,1.25-1.23,2.37-2.59a1.86,1.86,0,0,0-.32-2.62c-1-.76-2.11-1.39-3.19-2.08s-2.12-1.36-3.27-2-2.32-1-3.51-1.48-2.31-1-3.53-1.41-2.35-.88-3.6-1.24-2.43-.65-3.7-.94-2.43-.67-3.71-.9-2.52-.17-3.81-.35-2.5-.51-3.71-.61-2.55,0-3.77,0-2.54,0-3.75.07-2.55.17-3.74.37a31.51,31.51,0,0,0-3.63.95,25,25,0,0,0-3.51,1.3,22.39,22.39,0,0,0-3.3,1.75,19,19,0,0,0-3,2.28,16.65,16.65,0,0,0-2.22,3,17.13,17.13,0,0,0-1.7,3.33,18.06,18.06,0,0,0-.93,3.63l0,.18a18.79,18.79,0,0,0-.18,3.69,12.93,12.93,0,0,0,2.54,6.84,17.3,17.3,0,0,0,2.3,2.85,24.16,24.16,0,0,0,2.81,2.38,33.65,33.65,0,0,0,3.15,1.89c1.05.6,2.05,1.36,3.17,1.88s2.32.82,3.47,1.28,2.23,1.07,3.38,1.49,2.4.61,3.55,1,2.38.74,3.51,1.11,2.38.86,3.47,1.25c1.25.45,2.33,1.07,3.35,1.53a15.9,15.9,0,0,1,3.16,1.82c1.18.92,1.95,1.83,1.79,3a3.59,3.59,0,0,1-2.66,2.79,13,13,0,0,1-3.95.61,26.15,26.15,0,0,1-4-.34c-1.12-.16-2.35-.28-3.61-.56s-2.32-.61-3.53-1-2.33-.66-3.5-1.08-2.22-1-3.35-1.46-2.19-1.07-3.27-1.62-2.15-1.16-3.18-1.79-2.16-1.19-3.12-1.92a29.06,29.06,0,0,1-2.71-2.45,1.65,1.65,0,0,0-2.65.22c-1.13,1.37-1.14,1.36-2.26,2.73s-1.17,1.34-2.29,2.71-1.17,1.34-2.3,2.71a1.63,1.63,0,0,0,.27,2.3c.91.81,1.71,1.77,2.7,2.52s2,1.43,3,2.1,2.15,1.17,3.24,1.77,2.15,1.15,3.28,1.68,2.26.93,3.41,1.39,2.24,1,3.42,1.36,2.29.9,3.48,1.24,2.37.63,3.58.91,2.41.46,3.63.68S443.84,893.82,445.07,894Z"/><path class="cls-1" d="M525.94,874.28a1.14,1.14,0,0,1,.14.56c.18,1.9.08,1.91.26,3.81s.41,1.88.59,3.78.18,1.89.35,3.79,0,1.93.14,3.83.28,1.89.46,3.79a1.93,1.93,0,0,0,2,1.75c1.77-.16,1.75-.38,3.52-.55l3.55-.34c1.78-.16,1.79-.05,3.56-.21l3.56-.34c1.78-.17,1.78-.15,3.55-.32a1.88,1.88,0,0,0,1.66-2c-.18-1.9-.3-1.88-.48-3.78s-.17-1.9-.35-3.8,0-1.91-.21-3.81-.22-1.9-.4-3.8-.15-1.91-.33-3.81a1.14,1.14,0,0,1,.07-.54c.88-1.57.91-1.55,1.81-3.11s.79-1.62,1.69-3.18,1-1.48,1.94-3,1-1.52,1.87-3.08.78-1.63,1.68-3.19.94-1.53,1.84-3.09l1.81-3.12c.9-1.55.78-1.62,1.68-3.18s1-1.53,1.85-3.09,1-1.48,1.95-3,.66-1.7,1.56-3.26,1.1-1.44,2-3,.92-1.55,1.82-3.11a1.86,1.86,0,0,0-1.78-2.77c-1.64.16-1.64.21-3.28.36s-1.65.06-3.29.21-1.64.21-3.29.37-1.65,0-3.3.17a1.83,1.83,0,0,0-1.38,1.09c-.84,1.5-.8,1.52-1.66,3s-.94,1.45-1.79,3-.91,1.46-1.77,3-.87,1.49-1.72,3-.73,1.57-1.59,3.07-1,1.4-1.88,2.9-.62,1.64-1.47,3.13-1,1.42-1.86,2.92-.83,1.52-1.68,3a.82.82,0,0,1-.68.42.73.73,0,0,1-.72-.37c-1.12-1.31-1.23-1.22-2.35-2.53s-1.18-1.26-2.3-2.57l-2.23-2.62c-1.12-1.32-1.13-1.31-2.24-2.62s-.95-1.46-2.06-2.78-1.2-1.25-2.31-2.56-1-1.39-2.16-2.7-1.2-1.25-2.32-2.57-1.1-1.33-2.22-2.65a1.84,1.84,0,0,0-1.65-.63l-3.92.36-3.92.38c-2,.18-1.95.25-3.92.43s-2,0-3.94.18-1.94.45-3.91.64a1.76,1.76,0,0,0-1.21,2.89c1.16,1.38,1.19,1.35,2.37,2.72s1.16,1.37,2.33,2.74,1.24,1.3,2.42,2.67,1.14,1.38,2.32,2.75,1.1,1.43,2.27,2.79,1.21,1.34,2.39,2.7,1.33,1.23,2.51,2.59,1,1.49,2.2,2.85,1.27,1.28,2.45,2.65,1.2,1.34,2.37,2.71,1.09,1.44,2.27,2.8,1.12,1.42,2.32,2.76S524.78,872.9,525.94,874.28Z"/><path class="cls-1" d="M588,844.37a17,17,0,0,0,1.54,3.33,14.27,14.27,0,0,0,2.21,2.92,14.42,14.42,0,0,0,3,2.12,18,18,0,0,0,3.31,1.57,23.83,23.83,0,0,0,3.56.94,31.22,31.22,0,0,0,3.67.39c1.2.07,2.44-.11,3.68-.14s2.46,0,3.69,0,2.43-.39,3.65-.53,2.46-.29,3.65-.46l3.66-.47c1.27-.18,2.48-.44,3.64-.57,1.32-.16,2.56-.1,3.68-.14a17.11,17.11,0,0,1,3.69,0,3.57,3.57,0,0,1,2.93,2.08c.45,1.34-.28,2.51-1.3,3.57a12.56,12.56,0,0,1-3.13,2.45,27.31,27.31,0,0,1-3.69,1.52c-1.08.36-2.26.71-3.51,1s-2.37.37-3.61.59-2.37.41-3.6.56-2.41.2-3.64.27-2.43.22-3.65.21-2.46,0-3.66-.07-2.41-.49-3.59-.71a31,31,0,0,1-3.6-.67,1.7,1.7,0,0,0-1.19-.12,2,2,0,0,0-1.25,1.33c-.4,1.73-.32,1.75-.71,3.48s-.38,1.73-.77,3.47-.28,1.75-.69,3.48a1.68,1.68,0,0,0,1.12,2.06c1.18.31,2.39.5,3.62.72s2.4.41,3.64.54,2.43.27,3.67.32,2.45.11,3.69.09,2.44-.11,3.68-.21,2.44-.24,3.67-.41,2.41-.41,3.63-.64,2.42-.41,3.62-.7,2.39-.58,3.58-.92,2.29-.88,3.46-1.28,2.29-.75,3.38-1.18,2.3-.78,3.35-1.27,2.08-1.25,3.1-1.81,2.08-1.23,3-1.87,2-1.34,2.91-2.07a31,31,0,0,0,2.66-2.38,23.79,23.79,0,0,0,2.27-2.75,20.24,20.24,0,0,0,1.93-3,18.23,18.23,0,0,0,1.29-3.32,17.28,17.28,0,0,0,.59-3.51,17.74,17.74,0,0,0-.09-3.56,19.6,19.6,0,0,0-.78-3.49c0-.08-.09-.06-.11-.15a15.13,15.13,0,0,0-1.6-3.25A13.35,13.35,0,0,0,653,839a14.78,14.78,0,0,0-2.9-2.2,20,20,0,0,0-3.46-1.13,26.26,26.26,0,0,0-3.5-1c-1.17-.19-2.4-.2-3.63-.28s-2.41-.18-3.64-.18-2.42,0-3.64.08-2.43.23-3.63.33-2.44.22-3.63.35-2.44.35-3.61.49-2.48.14-3.63.26-2.51.31-3.62.36a23,23,0,0,1-3.64.08c-1.61-.2-2.69-.81-3-1.78a3.3,3.3,0,0,1,.8-3.49,9.91,9.91,0,0,1,3-2.21,29.85,29.85,0,0,1,3.51-1.39c1.12-.38,2.38-.63,3.69-1s2.44-.47,3.74-.69,2.46-.55,3.75-.68,2.53,0,3.81,0a37,37,0,0,1,3.8,0,30.89,30.89,0,0,1,3.79.48,1.82,1.82,0,0,0,1,.14,1.7,1.7,0,0,0,1-1.46c.37-1.72.5-1.69.88-3.4s.37-1.71.75-3.43.27-1.74.66-3.45a1.59,1.59,0,0,0-1.29-2c-1.23-.23-2.49-.41-3.77-.54s-2.51-.24-3.8-.27-2.51.13-3.8.21-2.52,0-3.81.16-2.49.33-3.77.57-2.45.57-3.71.88-2.47.5-3.72.87-2.39.81-3.62,1.22-2.34,1-3.47,1.46-2.36,1-3.45,1.49-2.32,1.05-3.37,1.67-2.22,1.28-3.2,2a31.28,31.28,0,0,0-2.79,2.53,27.32,27.32,0,0,0-2.6,2.7,22.27,22.27,0,0,0-2.1,3.1,19.26,19.26,0,0,0-1.71,3.35,17.29,17.29,0,0,0-.65,3.7,16.87,16.87,0,0,0,0,3.76,18.76,18.76,0,0,0,1,3.62C588,844.29,588,844.29,588,844.37Z"/><path class="cls-1" d="M659.68,809.85a1.93,1.93,0,0,0,2.54.68c1.6-1,1.58-1,3.18-2s1.52-1.12,3.13-2.11,1.65-.89,3.26-1.87,1.65-.91,3.26-1.89,1.51-1.13,3.12-2.12a.82.82,0,0,1,1.13.41c.93,1.52,1,1.47,2,3s.87,1.55,1.8,3.07,1,1.5,1.9,3l1.87,3c.93,1.52,1.09,1.42,2,2.94s.86,1.57,1.79,3.09,1,1.51,1.88,3,1,1.49,1.91,3,.85,1.57,1.79,3.09.91,1.53,1.84,3,1,1.47,2,3,.75,1.64,1.68,3.16,1,1.51,1.9,3a1.76,1.76,0,0,0,2.46.44c1.52-.93,1.65-.72,3.17-1.65s1.45-1,3-2,1.59-.81,3.11-1.74,1.52-.95,3-1.88,1.51-.95,3-1.89a2,2,0,0,0,.65-2.59c-.93-1.52-1-1.47-1.94-3l-1.85-3c-.94-1.52-.85-1.57-1.79-3.09s-1.12-1.4-2-2.92-.84-1.58-1.78-3.1-1-1.48-1.93-3-.85-1.57-1.78-3.09-1-1.5-1.9-3-.82-1.58-1.76-3.1-1-1.51-1.88-3-1-1.5-1.9-3-1-1.47-2-3l-1.86-3a1,1,0,0,1,.27-1.34c1.61-1,1.62-.95,3.23-1.93l3.2-2c1.6-1,1.7-.83,3.31-1.81s1.49-1.16,3.1-2.14,1.63-.95,3.24-1.93a1.8,1.8,0,0,0,.65-2.44c-.85-1.4-.91-1.36-1.77-2.75s-.8-1.43-1.65-2.83-1-1.31-1.84-2.71a1.58,1.58,0,0,0-2.28-.52c-1.53.93-1.64.74-3.16,1.68s-1.48,1-3,1.93-1.59.83-3.11,1.77-1.46,1-3,2-1.59.83-3.11,1.77-1.44,1.07-3,2l-3.06,1.87c-1.52.93-1.58.83-3.1,1.77s-1.56.88-3.09,1.82-1.5,1-3,1.9-1.42,1.1-3,2-1.56.87-3.08,1.8-1.61.81-3.13,1.75-1.46,1-3,2-1.49,1-3,1.92l-3.05,1.88c-1.53.94-1.58.86-3.11,1.8a1.78,1.78,0,0,0-.6,2.45c.85,1.39.73,1.46,1.59,2.85s.92,1.35,1.77,2.75S658.83,808.45,659.68,809.85Z"/><path class="cls-1" d="M763.58,799.51a1.72,1.72,0,0,0,2.45.06c1.32-1.28,1.44-1.16,2.76-2.44s1.14-1.46,2.46-2.75,1.47-1.13,2.78-2.41,1.16-1.46,2.47-2.74,1.39-1.21,2.71-2.5,1.47-1.13,2.79-2.42,1.13-1.47,2.45-2.76,1.49-1.11,2.81-2.39,1.13-1.48,2.45-2.77,1.29-1.3,2.61-2.58,1.34-1.27,2.66-2.55,1.46-1.15,2.78-2.43,1.36-1.24,2.69-2.52,1.3-1.31,2.62-2.59,1.29-1.33,2.61-2.62l2.67-2.55a2,2,0,0,0,.1-2.68l-2.29-2.34c-1.14-1.17-1.23-1.08-2.37-2.25l-2.29-2.34a1.71,1.71,0,0,0-2.46,0c-1.25,1.22-1.43,1-2.69,2.24s-1.11,1.36-2.36,2.58-1.2,1.27-2.45,2.48L789,758.72c-1.25,1.21-1.36,1.1-2.61,2.32s-1.1,1.37-2.35,2.59-1.33,1.14-2.58,2.35l-2.5,2.44c-1.25,1.22-1.2,1.27-2.46,2.49s-1.32,1.15-2.58,2.37l-2.5,2.45a.94.94,0,0,1-1.29,0c-1.12-1.15-1.13-1.14-2.25-2.29s-1-1.26-2.13-2.41-1.19-1.08-2.31-2.23a.88.88,0,0,1,0-1.2c1.36-1.33,1.31-1.38,2.67-2.7s1.32-1.36,2.68-2.69,1.34-1.33,2.7-2.66,1.4-1.28,2.76-2.6,1.33-1.36,2.69-2.68,1.33-1.37,2.69-2.69,1.47-1.22,2.83-2.54a1.78,1.78,0,0,0,0-2.51c-1.08-1.11-1-1.15-2.11-2.26s-1.11-1.07-2.19-2.18-1-1.19-2.07-2.3a1.81,1.81,0,0,0-2.53.11c-1.36,1.32-1.38,1.29-2.74,2.62s-1.38,1.3-2.74,2.62-1.46,1.22-2.82,2.54l-2.72,2.65c-1.36,1.32-1.37,1.31-2.73,2.64s-1.16,1.53-2.52,2.85-1.56,1.13-2.92,2.46a.69.69,0,0,1-1.07-.06c-1.12-1.15-1.23-1-2.35-2.18s-1.15-1.13-2.27-2.28-1.11-1.16-2.23-2.31a.88.88,0,0,1,.12-1.19c1.25-1.22,1.15-1.32,2.4-2.54s1.23-1.24,2.48-2.46l2.51-2.43c1.25-1.22,1.35-1.11,2.6-2.33s1.14-1.33,2.39-2.55,1.22-1.25,2.47-2.46,1.38-1.09,2.63-2.31,1.12-1.36,2.37-2.57,1.31-1.16,2.56-2.38l2.53-2.43c1.25-1.22,1.39-1.08,2.64-2.3a1.93,1.93,0,0,0-.08-2.64c-1.14-1.17-1.06-1.26-2.19-2.43s-1.3-1-2.44-2.19-1.16-1.16-2.3-2.33a1.76,1.76,0,0,0-2.49-.18l-2.65,2.55-2.63,2.57c-1.32,1.29-1.27,1.34-2.59,2.62s-1.19,1.41-2.51,2.7-1.55,1-2.87,2.33-1.3,1.3-2.62,2.58-1.19,1.42-2.51,2.71-1.38,1.21-2.7,2.5-1.29,1.31-2.61,2.6-1.24,1.37-2.56,2.65-1.47,1.12-2.79,2.41-1.33,1.27-2.66,2.55-1.34,1.26-2.66,2.55-1.15,1.46-2.47,2.75-1.39,1.22-2.71,2.51-1.26,1.36-2.58,2.65a1.82,1.82,0,0,0-.2,2.54c1.28,1.32,1.45,1.15,2.73,2.47s1.1,1.49,2.38,2.81,1.35,1.25,2.63,2.57,1.2,1.4,2.48,2.71,1.36,1.25,2.64,2.56,1.26,1.34,2.54,2.66,1.37,1.24,2.65,2.55,1.33,1.27,2.61,2.59,1.31,1.3,2.59,2.61l2.56,2.64c1.28,1.32,1.09,1.5,2.37,2.82s1.28,1.33,2.56,2.65,1.51,1.09,2.8,2.41,1.06,1.54,2.34,2.86,1.4,1.21,2.7,2.51S762.29,798.18,763.58,799.51Z"/><path class="cls-1" d="M778,701.93c1.57,1,1.65.83,3.22,1.78s1.69.75,3.27,1.7,1.44,1.17,3,2.12,1.56,1,3.13,1.92,1.52,1,3.09,2,1.75.68,3.32,1.63,1.58.93,3.16,1.88,1.52,1,3.1,2,1.46,1.14,3,2.09,1.76.65,3.33,1.6,1.43,1.2,3,2.15,1.54,1,3.12,2,1.74.67,3.31,1.63,1.42,1.21,3,2.17,1.68.79,3.25,1.74l3.16,1.91a1.72,1.72,0,0,0,2.4-.58c1-1.59,1-1.55,2-3.14s.92-1.61,1.88-3.2.84-1.67,1.8-3.26a1.71,1.71,0,0,0-.46-2.4c-1.53-.92-1.59-.83-3.12-1.76s-1.56-.87-3.09-1.79-1.48-1-3-1.94-1.52-1-3-1.87-1.42-1.1-3-2-1.73-.59-3.27-1.52-1.43-1.09-3-2-1.44-1.09-3-2c-.53-.32-.74-.74-.51-1.13s.5-.31.9-.27c1.86.12,1.87,0,3.73.15s1.86.25,3.73.37,1.86.15,3.73.27,1.87,0,3.74.13,1.87-.06,3.74.06,1.85.4,3.71.52,1.89-.18,3.75,0,1.86.29,3.73.41,1.87.08,3.74.19a1.85,1.85,0,0,0,1.74-.81c.81-1.34.72-1.39,1.53-2.73s.87-1.29,1.68-2.63a1.9,1.9,0,0,0,0-1.95c-.85-1.49-1-1.4-1.86-2.88l-1.72-3c-.86-1.48-.83-1.5-1.69-3s-.79-1.52-1.65-3-.78-1.52-1.64-3-.9-1.46-1.76-3-.87-1.47-1.73-3-1-1.41-1.84-2.89-.7-1.58-1.56-3.07-1.1-1.34-2-2.82a1,1,0,0,1,.16-1,.94.94,0,0,1,1.3-.34l3.07,1.88c1.54.93,1.56.9,3.1,1.83s1.56.89,3.1,1.82,1.37,1.21,2.91,2.15,1.62.79,3.16,1.72,1.56.89,3.1,1.83,1.47,1.06,3,2,1.6.84,3.15,1.77a1.76,1.76,0,0,0,2.41-.66l1.84-3.05c.93-1.53.85-1.57,1.77-3.1s.94-1.52,1.86-3,.95-1.51,1.87-3l1.85-3.06a1.73,1.73,0,0,0-.49-2.42c-1.58-.95-1.63-.86-3.2-1.81s-1.55-1-3.12-2-1.62-.87-3.19-1.82-1.49-1.09-3.06-2-1.53-1-3.11-2-1.61-.88-3.19-1.83-1.66-.81-3.23-1.76l-3.15-1.9c-1.58-.95-1.45-1.16-3-2.11s-1.63-.86-3.21-1.82-1.62-.87-3.19-1.82-1.54-1-3.11-2-1.64-.84-3.22-1.79-1.51-1.07-3.08-2-1.63-.87-3.21-1.83-1.49-1.09-3.07-2a1.77,1.77,0,0,0-2.4.72c-.9,1.5-.95,1.47-1.85,3s-1,1.42-2,2.92-1,1.48-1.86,3-.84,1.54-1.75,3.05-.93,1.49-1.84,3a1.9,1.9,0,0,0,0,2c.91,1.58,1.14,1.45,2,3s.79,1.64,1.67,3.24.81,1.64,1.69,3.23.85,1.62,1.73,3.22,1,1.5,1.93,3.1.92,1.58,1.8,3.17.57,1.77,1.45,3.37,1.07,1.49,2,3.09,1,1.54,1.87,3.14.88,1.61,1.76,3.21.82,1.64,1.69,3.24c.14.29-.08.64-.22.87a.66.66,0,0,1-.66.38c-1.77-.1-1.78,0-3.55-.12s-1.79.09-3.57,0-1.76-.34-3.53-.46-1.79,0-3.57-.11-1.78,0-3.56-.11-1.77-.16-3.54-.28-1.76-.44-3.53-.56l-3.56-.24c-1.77-.12-1.78,0-3.56-.12s-1.78-.06-3.56-.17-1.78-.22-3.56-.32a2,2,0,0,0-1.67,1c-.88,1.45-.8,1.5-1.68,2.95s-1.09,1.32-2,2.77-.65,1.59-1.53,3-.91,1.42-1.79,2.88-.94,1.41-1.82,2.86A2,2,0,0,0,778,701.93Z"/><path class="cls-1" d="M842.94,621l.17,0a17.83,17.83,0,0,0,3.57.84,14.3,14.3,0,0,0,7.21-1.24,17.77,17.77,0,0,0,3.13-2,23.32,23.32,0,0,0,2.74-2.46,34.49,34.49,0,0,0,2.34-2.83c.75-1,1.49-1.93,2.18-3s1.37-2,2-3.1,1.12-2.2,1.7-3.27,1.13-2.2,1.68-3.28,1.21-2.18,1.75-3.24,1.32-2.15,1.88-3.18,1-2.36,1.63-3.3a15.91,15.91,0,0,1,2.36-2.84c1.09-1,2.2-1.52,3.33-1.19a3.5,3.5,0,0,1,2.28,3,12.57,12.57,0,0,1,0,4,28.26,28.26,0,0,1-.78,3.9c-.32,1.09-.67,2.27-1.14,3.48s-.92,2.21-1.45,3.35-1,2.18-1.62,3.28-1.23,2.09-1.88,3.13-1.25,2.11-2,3.09-1.58,1.88-2.36,2.8a35.86,35.86,0,0,1-2.44,2.73,29,29,0,0,1-2.82,2.33,2,2,0,0,0-.78,1,1.94,1.94,0,0,0,.61,1.68c1.18,1.32,1.19,1.31,2.38,2.62s1.16,1.35,2.36,2.66,1.22,1.28,2.41,2.61a1.72,1.72,0,0,0,2.35.35c.93-.79,1.83-1.63,2.71-2.51s1.75-1.72,2.57-2.65,1.47-2,2.22-3,1.5-1.93,2.19-3,1.28-2.08,1.91-3.15,1.24-2.11,1.81-3.21,1-2.23,1.52-3.36,1.06-2.2,1.51-3.36,1-2.24,1.42-3.41.59-2.38.94-3.57.82-2.28,1.09-3.41.58-2.36.79-3.5.21-2.42.33-3.57.19-2.41.23-3.57,0-2.42,0-3.57a32.42,32.42,0,0,0-.51-3.54,26.41,26.41,0,0,0-.78-3.48,21.25,21.25,0,0,0-1.36-3.31,18.46,18.46,0,0,0-2.06-2.92,17.09,17.09,0,0,0-2.53-2.5,16.51,16.51,0,0,0-2.93-2,19.77,19.77,0,0,0-3.33-1.33c-.08,0-.1,0-.19,0a14.86,14.86,0,0,0-3.58-.69,13.38,13.38,0,0,0-3.59.54,14.6,14.6,0,0,0-3.44,1.13,19.06,19.06,0,0,0-3.06,2,25.78,25.78,0,0,0-2.62,2.52c-.83.85-1.61,1.77-2.38,2.73s-1.45,1.92-2.15,2.93-1.58,1.86-2.23,2.89-1.13,2.16-1.73,3.2-1.14,2.17-1.72,3.22-1.37,2-1.94,3.09-1.11,2.22-1.68,3.22-1.14,2.26-1.74,3.2a19.27,19.27,0,0,1-2.26,2.85c-1.09,1.2-2.07,1.74-3.06,1.45a3.26,3.26,0,0,1-2.52-2.55,10.56,10.56,0,0,1,.1-3.76,31.33,31.33,0,0,1,.87-3.67c.33-1.12.86-2.3,1.35-3.55s.78-2.38,1.34-3.57,1.21-2.21,1.85-3.33,1.27-2.2,2-3.25,1.49-2.07,2.29-3a30.85,30.85,0,0,1,2.71-2.66,2,2,0,0,0,.52-.93,1.67,1.67,0,0,0-.48-1.71c-1.18-1.29-1.26-1.22-2.44-2.52l-2.36-2.59c-1.19-1.3-1.1-1.37-2.27-2.68a1.61,1.61,0,0,0-2.43,0c-.9.87-1.78,1.78-2.62,2.75s-1.73,1.85-2.49,2.89-1.39,2.1-2.08,3.2-1.33,2.13-1.94,3.27-1.13,2.25-1.67,3.43-1,2.3-1.49,3.51-.85,2.36-1.27,3.59-.82,2.38-1.19,3.63-.75,2.44-1,3.62-.41,2.52-.6,3.71-.34,2.53-.44,3.73-.33,2.55-.31,3.75a29.63,29.63,0,0,0,.31,3.75,25.28,25.28,0,0,0,.82,3.67,23,23,0,0,0,1.23,3.54,18.94,18.94,0,0,0,1.85,3.28,17.08,17.08,0,0,0,2.72,2.59,16.29,16.29,0,0,0,3,2.18A18.8,18.8,0,0,0,842.94,621Z"/><path class="cls-1" d="M500,978.79l14.45-.44,14.47-.27,14.37-1.69,14.41-1.13,14.36-1.7,14.32-2.13,14.2-2.83,14-3.67,14-3.62,13.95-3.85L656,952.19l13.89-4.1,13.2-6,13.38-5.49,13.23-5.86,12.59-7.14,12.74-6.83,12.54-7.2,12.25-7.68,12.25-7.72,11.61-8.63,11.36-9,11.13-9.22,11-9.41,11-9.44,10.12-10.33,10-10.48,10-10.4,9.62-10.8,8.89-11.42,9.12-11.24,7.74-12.24L902,759.84l7.31-12.47,7.4-12.41L924,722.5l6.18-13.07,6.44-12.95L942,683.05l5.8-13.25,5.07-13.55,3.89-13.94,4.52-13.74,3.46-14,3.75-14,2.28-14.29,3-14.16L975,557.67l2.21-14.31.75-14.45.63-14.45,0-14.46-.13-14.46-.13-14.47-1.94-14.36-.9-14.44L973.27,428l-2.37-14.26-2.8-14.19-3.17-14.11L961,371.51l-3.64-14-4.5-13.75-5.48-13.39-5.21-13.49-5.4-13.42-6.68-12.84-6.53-12.88-6.72-12.8-6.89-12.72L902.15,240l-8.62-11.62-8-12.07-9-11.31-8.95-11.35-9.25-11.12-10.2-10.26-9.55-10.88-10.73-9.72-10.6-9.83-11.18-9.16-11-9.33-11.48-8.79-11.85-8.28L759.89,98l-12.52-7.24-12.26-7.67-12.73-6.86-12.71-6.92-13.14-6.05-13.32-5.63-13.62-4.88L656.2,47.27l-13.91-4-13.78-4.34-13.84-4.25-14.13-3.13L586.31,29l-14.25-2.48-14.38-1.55L543.34,23l-14.41-1.27-14.46-.5L500,20.81,485.53,21l-14.44,1.09-14.38,1.49-14.45.83L428,26.87l-14.35,1.86-14.09,3.32-14.22,2.68-13.91,4-13.79,4.34L343.71,47l-13.45,5.35L316.94,58l-13.52,5.17-12.79,6.77-13.14,6-12.41,7.45L252.5,90.54l-12.29,7.61L228.07,106l-11.54,8.72L204.69,123l-10.91,9.51-11.39,8.94-10.28,10.19-10.42,10-10.24,10.22-9.44,11-9.62,10.8-9.38,11-8.37,11.8L105.9,228l-7.61,12.3L90,252.17l-7.21,12.54-7.05,12.65L69.5,290.43l-5.92,13.19-6.14,13.1-5.22,13.49-4.63,13.7-4.67,13.68-4.45,13.77-3.23,14.11-3.62,14-2.8,14.19L26.19,427.9,24.3,442.24l-1.08,14.44-.8,14.43-1.21,14.42L21.3,500,21,514.47l1,14.45L23,543.34l1.45,14.39L26.76,572l2,14.32,2.83,14.18L35,614.59l3.5,14,4.38,13.79,4.54,13.72L52,669.88l5.49,13.39,5.91,13.2,6.55,12.9,6.49,12.91,6.35,13,7.45,12.41,7.42,12.43L106,772l8.62,11.62L123,795.34l9.15,11.21,9.41,11,9.81,10.63,10.17,10.29,10.33,10.13,10.72,9.71,11,9.4,11.48,8.8,11.33,9,11.93,8.16,11.73,8.46,12.22,7.75,12.83,6.7,12.28,7.67,13,6.39,13,6.41,13.44,5.37,13.42,5.39,13.69,4.67,13.61,4.89,14,3.71,13.85,4.21,14.24,2.62,14,3.54L428,973l14.23,2.66,14.42,1.27L471.09,978l14.44.86ZM835,353.64l3.42-5.54,7.28,2.83,2.89.19L864.82,347l16.19-4.3,3.31,2.05,4.23,14.75,4.63,14.62-2.07,3.65-16.73,4.05-16.47,5.06-2.65,1.85-3,5.31-7.11-2.53-3-1-13,4.86L816,399.46,813.93,403l3.91,13.71,3.52,13.83,4.18,13.65,4.15,13.65-2.1,4-16.26,4.6-3.58-2.12-2.08-13.27-2.42-13.2-2.44-13.21-3.14-13.07-4.21-12.76-4-12.83-5.77-12.17,2.25-4.21,15.53-4.94,15.69-4.42,15.78-4.06ZM755.86,239.32l1-6,7.75-.32,2.66-.94,14-10,13.93-10.07,3.74.65,9.42,12.14,9.75,11.88-.57,4.16-14.07,10L790.07,261.8l-1.77,2.67-.64,5.85-7.69.45-3.11.19-10.78,9.74-11.28,9.13-.34,2,8.95,11.57,8.63,11.8,9.17,11.4L790.37,338l-.46,4.53-13.37,10.32-2,.3-6.83-11.89-7.17-11.7-7.19-11.69-7.84-11.29L736.78,296l-8.63-10.7-10-9.43.53-4.74,11.76-9.92,12.1-9.51,12.34-9.22Zm-89-11.16,8.58-12.62,9.07-12.28,8.26-12.85.29-3.16-.94-7.2,8-2.08,3.44-1.4,8.13-12.34,8.53-12.06,3.95-.51,13,8.18,12.07,9.54,1.16,4-9.85,13.35L730.7,200l.42,3.26.38,6.45-7.11,2.56-2.66,1.24L713,225.37l-8.16,12.22-8.18,12.21-4.62.76-12-9.3-12.27-9Zm-151-91.75-4.3-5.42,8.17-6.63,1.72-2.44,3.4-12.14,3.27-12.18,3.28-12.18,3.18-1.93,14.21,3.07,14.1,3.55,2,2.32,3.9,12.88L571,118.59l3.76,12.91,2.86,13.14,2.82,13.15,1.59.7,1.33-.25,9.64-9.83,9.56-9.93,9.84-9.64,9.36-10.12,9.38-10.1,3.25-1.18,14.62,3.65,14.52,4,2.49,3.61L662,136l-4.65,17.1,1.06,3.4,4.16,7.42-6.86,3.85-2.26,2.79-3.86,14.18-3.12,14.38-3.63,14.25-6.1,2.44-13.52-6-13.52-6-2.2-3.54,3.8-13.35,3.47-13.44,2.7-13.63-.72-1.79-1.39.57-11.07,11.25-10.3,12L582.78,193,580,194.48l-20.69-5.61L557,187l-3.65-15.1-3.83-15.06-3.56-15.12-.93-1.49-1.51,1.62-4,13.44-3.11,13.66L533,182.54l-3.29,2.3-19.33-1.32-3.09-3.73,3.77-13.24,3.31-13.32,2.74-13.47ZM756.92,500l-.17,14.42-1.58,14.33-1.4,14.36-3.19,14.08-3.84,13.88-4.63,13.64L737,598.14l-5.5,13.32-6.69,12.76-7.56,12.26-7.37,12.41-9.39,11-8.81,11.42-10.11,10.27-10.68,9.66L660.3,701l-11.59,8.6-12,7.92-12.41,7.33-13,6.27-13,6.14-13.38,5.38-13.68,4.55-14,3.57L543,753.18l-14.22,2.36-14.36,1.36H500l-14.39-.65-14.38-.91L457,752.88l-14.29-2L428.87,747,415,743l-13.45-5.26-12.95-6.35-13-6.28-12.25-7.62-12.2-7.68L340,700.71l-10.9-9.41-10.93-9.42-9.59-10.78-9.47-10.87-8.27-11.81-8.47-11.66L275.52,624l-7.32-12.43-5.26-13.43-5.47-13.33-4.4-13.72-3.79-13.91-2.72-14.16-1.49-14.34L243,514.43l.21-14.43.14-14.41,1.22-14.37,2-14.27,2.89-14.12,3.33-14,4.84-13.59,5.17-13.43,5.37-13.39L275,375.65l7.68-12.2,7.54-12.3,8.7-11.52,9.5-10.86,10.25-10.13,10.38-10,10.57-9.84,11.83-8.26,11.79-8.3,12.51-7.18,12.9-6.42,12.9-6.46,13.72-4.48,13.58-4.86,14-3.5,14.09-3.15,14.33-1.71,14.37-1.16L500,242.8l14.4.73,14.42.68,14.23,2.42,14.15,2.73,13.85,4,13.74,4.27,13.51,5,13.36,5.45,12.54,7.13,12.69,6.87,11.85,8.25,11.14,9.15,11.06,9.2,10.61,9.74L691.38,329,701,339.73l8.38,11.73,7.86,12.07,7.46,12.31,6.42,12.88L737,401.86l5.55,13.29,4.79,13.61,2.93,14.13,3.31,14,1.48,14.35,1.72,14.31ZM279.66,144l12.95-6.44,13.19-5.89,12.78-6.79L331.79,119l13.14-6,13.16-6,13-6.25,3.9,1,7.24,15.27-1.5,3.69-14.22,7.67-14.94,6.17-14.29,7.55-14.69,6.71-1.72,4.22,5.51,9.89,1.7.69,13.77-6.44,13.73-6.55,13.89-6.19,3.83,1.15,7.11,14.31-1.4,4.34-13.29,6.32-13.48,6-13.13,6.69L338,186.94l4.47,9.89,2.19,1,11.78-5.95,12.1-5.28,11.54-6.43,12.05-5.39,11.73-6.08,4.6,1.7,4.3,10.35,5.12,10-2.18,4.18-13.62,4.66L388.39,204,375,209.44l-12.72,6.78-12.91,6.39-12.26,7.55-12.3,7.51-4.41-.79-4.7-11.31-6-10.71-4.66-11.35L302,202l-6.09-2.65,1.25-7.73.34-2.87-6-13.74-7.25-13.16L278.35,148ZM143.75,288.1l9.14-12.35,9.62-12,4.35-1,12.89,10.33,13,10.22,4.66-.44,8.11-10.63,7.78-10.9,8.18-10.6-.14-2.43-14.18-9.85L194,227.28l-1-4,9.53-12,9.56-12,4.16-1,11.61,9,11.62,9,11.69,8.94,3.53.51,8.82-.84,1.16,8,1,3.12,14,10.71,13.74,11,.47,4.58-10.74,10.91-10.61,11-3.87.22L255.71,275l-12.49-10.1L239.05,266l-8.39,10.43-7.79,10.9-8.2,10.57-.08,2,13.93,10.13L242,320.77l1.06,4.11-9,14.29-7.88,14.89-1.87-.11-10.2-8.35-10.61-7.83-10.17-8.41-3.48.3-7.75.23-2.29-8-.51-3.31L167.53,310l-11.62-8.85-11.73-8.72ZM87.84,445.83l3.55-14.51L95.51,417l3.17-14.6L102.82,388l4-14.38,4-14.39,3.75-14.46,3.24-2.26,16.4,4.34,1.86,3.52-3.32,15.85-4.94,15.43,1.56,1.76,19.54,5.38,3.29-.72,7.19-3.59,3.92,6,2,2.5,11.84,3.08L189,399.55l11.91,2.83,2.26,3.69-3.89,14.72-3.38,14.85-3.9,2.11-17.09-4.07-17-4.27-3.28,1-7.11,4.28-5.14-7.69L140.18,424,120,419.56l-1.74.74-3.66,15.77L110.4,451.7l-4,1.93-16.52-3.88ZM224,500.52l.62,14.41.77,14.42,2.51,14.22,2.26,14.25,3.15,14.09,3.88,13.92L242,599.44l6,13.17,6.2,13,6.7,12.8,8.24,11.87,7.48,12.38,9.33,11,9.17,11.14,9.72,10.69L315.75,705l10.89,9.45L338,723.35l11.89,8.19,12.09,7.9,12.82,6.68,13.12,6,13.39,5.37,13.57,4.85,13.72,4.51,14.12,3,14.21,2.46,14.25,2.27L485.56,776l14.44.09,14.45.07,14.33-1.94,14.35-1.53,14.1-3,14-3.26,14-3.64,13.47-5.2,13.44-5.24,12.84-6.6,12.9-6.47,12.39-7.43,11.51-8.73,11.7-8.44,10.84-9.53,10.83-9.56,9.55-10.83,9.88-10.56,8.2-11.9,8.78-11.48,7.29-12.47,6.91-12.67,6.07-13.09,5.64-13.28,5.34-13.43,3.3-14.07,4-13.88,2.39-14.24,1.92-14.3,1.16-14.38.48-14.42,14.12-.28,14.12.48,14.12,0,14.12-.58,14.12.14,14.13.39,14.12-.58H889l14.12.25,14.13.48,14.12-.11,14.13-.69,14.11.53,0,14.38-.87,14.41-1.38,14.36-1,14.41-2.75,14.19-2,14.3-3,14.11-3,14.11-4.11,13.85-4.3,13.77-4.56,13.7-5.43,13.37-5.07,13.53-6.35,13-6.31,13-7.14,12.54-7.08,12.56-7.45,12.36-7.53,12.32-8.78,11.47-8.25,11.86L854,793.22l-9.83,10.57-9.63,10.73L824.65,825l-10.43,10-10.41,10-11.21,9.08L781.23,863l-11.44,8.79-11.92,8.11-12,7.91-12.06,7.92-12.32,7.52-13.07,6.17-12.72,6.82-13.37,5.47-13.12,6-13.7,4.56-13.53,5-13.72,4.49-14.08,3.2-13.92,3.8-14.08,3.21-14.32,1.85-14.19,2.7-14.41,1-14.34,1.71-14.44.45L500,959.8l-14.42-.47-14.44-.28-14.34-1.67-14.4-1-14.19-2.67-14.31-1.89-14.12-3-14-3.6-14-3.4-13.72-4.48-13.53-5-13.67-4.66-13.17-5.9-13.36-5.48-12.62-7-12.78-6.65-12.46-7.26L254,888.07l-12.19-7.73-11.56-8.64-11.61-8.57-11.46-8.77-10.87-9.5-10.42-10-10.69-9.7-9.77-10.62-9.73-10.65L146.5,792.8l-9.08-11.2-9-11.25-8.55-11.64-7.48-12.34-7.83-12.13-6.68-12.79-7-12.58L84.37,696,78.46,682.8l-5.84-13.2L67.81,656,63.1,642.36l-4.39-13.74-3.65-14-3.66-14-3-14.12-2.07-14.28-2.18-14.26-1.76-14.31-1.57-14.36L40.23,515l.22-14.15,14-.14,14.12.32,14.12-.32,14.12-.27,14.12.45,14.13-.07,14.12,0,14.12-.06,14.12-.13,14.13.07,14.12-.06,14.13,0Z"/><path class="cls-1" d="M290.81,515.46c2.82,2,6.86,2.9,11.13,4.1,3.58,1,7.26,2.37,11.49,2.57.4,4.35,1.55,8.43,2.24,12.69s1.7,8.49,2.68,12.69,1,8.73,2.25,12.86,3.1,8.14,4.63,12.18,3.68,7.87,5.48,11.8,3.44,8,5.5,11.77,4.58,7.35,6.9,11,4.61,7.33,7.16,10.83,4.49,7.52,7.28,10.84,6.75,5.59,9.75,8.72,5.15,7.13,8.36,10.05,7.33,4.76,10.73,7.46,6.14,6.27,9.71,8.74,7.62,4.19,11.35,6.41,7.47,4.4,11.34,6.36,7.91,3.49,11.91,5.2,8.05,3.09,12.16,4.52,8,3.43,12.19,4.58,8.5,1.62,12.77,2.48,8.54,1.15,12.86,1.72,8.49,1.75,12.85,2,8.63.35,13,.35,8.53-.3,12.75-.57,8.52-.53,12.72-1.08,8.44-1.26,12.59-2.09,8.55-1,12.64-2.14,7.86-3.51,11.87-4.88,8.26-2.24,12.18-3.87,8-3.14,11.77-5,7.06-4.86,10.73-7,7.51-4,11-6.39,6.93-4.93,10.29-7.55,6.21-5.79,9.39-8.62c0,0,.7.38.69.36a52.77,52.77,0,0,0-10.29-8.43c-3.84-2.23-8.23-3.46-12.46-4.62a53.33,53.33,0,0,0-13.06-2.34,55.65,55.65,0,0,0-13.26,1.33c-4.23,1-7.93,3.72-11.94,5.72s-8.78,3.17-13.14,4.86-8.49,3.95-13,5.23-9,2.32-13.65,3.18-9.23,1.29-13.9,1.72-9.28.35-14,.35c-4.44,0-8.82-.63-13.17-1s-8.73-1.18-13-2-8.86-.86-13.09-2-8.23-3.27-12.34-4.79-8-3.58-12-5.45-8.15-3.38-11.95-5.59-7.14-5.13-10.74-7.66-7.2-5-10.57-7.82-6.75-5.63-9.87-8.73-6.51-6-9.36-9.33-5.7-6.76-8.25-10.35-4.24-7.74-6.46-11.55-4-7.78-5.9-11.77-4.44-7.64-6-11.79-2-8.57-3.13-12.84-3.39-8.24-4.17-12.6-.45-8.8-.84-13.22-.31-8.73-.32-13.18.19-8.71.56-13.14,1-8.64,1.7-12.89.51-8.83,1.63-13,3.64-8,5.12-12.07,1.95-8.63,3.78-12.56,4.26-7.65,6.43-11.41,5-7.1,7.53-10.67,4.9-7.18,7.69-10.52,5.25-7,8.31-10.1,6.84-5.43,10.15-8.26,6.94-5.18,10.48-7.72,6.37-6.14,10.12-8.37,7.76-4,11.68-5.93,8.27-2.76,12.35-4.32S460.8,359.19,465,358s8.58-1.42,12.87-2.26,8.53-1.26,12.89-1.72,8.57-1.35,12.95-1.43c4.14-.07,8.27-.53,12.32-.29s8.27.44,12.3,1,7.9,2.53,11.88,3.42,8.08,1.47,12,2.68,7.81,2.53,11.59,4.05,7.44,3.45,11.09,5.28c4,2,8.32,2.51,12.49,3.4s8.48,2.23,12.79,2.05,8.49-1.61,12.65-2.85A51.33,51.33,0,0,0,624.45,366c3.67-2.19,7.79-4.28,10.91-7.4-3.19-2.82-6.9-5.42-10.26-8s-6.33-5.8-9.86-8.18-7.88-3.46-11.56-5.61-7.13-4.64-10.95-6.54S585,326.6,581.11,325s-7.74-3.57-11.79-4.95-8.33-1.72-12.46-2.83-8.08-2.65-12.28-3.48-8.28-2-12.52-2.56-8.45-1.21-12.72-1.49-8.52.78-12.81.78-8.61-1-12.84-.73-8.55.93-12.76,1.48-8.43,1.58-12.6,2.42-8.32,2-12.43,3.1-8.39,1.86-12.41,3.25-7.67,3.88-11.59,5.53-8.14,2.74-11.95,4.65-7.32,4.42-11,6.57-7.34,4.34-10.87,6.74-7.25,4.56-10.61,7.19-6.69,5.34-9.88,8.18-5.83,6.25-8.83,9.29-5.69,6.33-8.48,9.56-6,6.11-8.56,9.52-4.86,7-7.2,10.59-4.11,7.46-6.21,11.19-4.26,7.36-6.11,11.22-3.65,7.68-5.25,11.65-3.33,7.85-4.65,11.93a116.67,116.67,0,0,1-4.64,12.05,128.62,128.62,0,0,1-5.82,11.55c-2.16,3.71-4.24,7.54-6.73,11.06s-5.78,6.42-8.52,9.75-4.85,7.21-7.8,10.35c-2.08,2.23-3.11,4.23-3.11,6.89A11.9,11.9,0,0,0,290.81,515.46Z"/><path class="cls-1" d="M595.88,532.16a90,90,0,0,0,2.3-10.46,52.82,52.82,0,0,0,11-2c3.94-1.26,7.51-2.73,10.07-4.75,3.37-2.65,5.39-6.12,5.39-9.57,0-4.58-3.9-8.42-9.51-11.43-3.5-1.88-6.19-4.86-9-7.52s-6-5.17-8.21-8.43-3.57-7-5.13-10.61c0,0-.44.15-.45.14-1.1-4-1.29-8.09-1.74-12.16a79.31,79.31,0,0,1-.41-12.23c.17-4.09-.17-8.28.59-12.31.93-4.93.67-9.19-2.06-11.93-2.46-2.45-6.25-3.52-10.54-3-3.26.4-6.76,2-10.45,3.94a53.68,53.68,0,0,0-9.36,6.46c-5-3.32-10.21-6.63-15.68-8.85A75.65,75.65,0,0,1,532,410.75a80,80,0,0,1-9.29-8.55,85.29,85.29,0,0,1-8-9.78c-2.83-4.14-6.21-6.74-10.07-6.74-3.47,0-6.67,2-9.33,5.41A31.31,31.31,0,0,0,490,400.9c-1.05,3.31-1.25,7.22-1.6,11.18-2.08.43-4.35.62-6.38,1.19-.08,0-.11.25-.19.27-1.43.4-2.94.56-4.34,1-2.63.83-5.08,2.25-7.64,3.32a75.73,75.73,0,0,1-12,1.73c-4,.42-8.06,1.29-12.11,1.11s-8-1.28-12-2c-4.93-.94-9.49-.23-12.22,2.5-2.45,2.45-2.86,6.35-2.35,10.62a30.89,30.89,0,0,0,3.18,10.62,54.23,54.23,0,0,0,6.57,9.15,90.77,90.77,0,0,0-5,8.85,95.78,95.78,0,0,0-4.39,9,76.58,76.58,0,0,1-6.69,9.92,82,82,0,0,1-8.39,8.49,86.77,86.77,0,0,1-9.23,7.57c-4.15,2.83-6.5,6.11-6.5,10,0,3.46,1.72,6.6,5.11,9.26,2.57,2,6,3.36,10,4.62a49.31,49.31,0,0,0,10.78,2.65c.15.79.19,1.5.37,2.28.22,1,.7,2,1,3,.33,1.27.28,2.64.66,3.88.44,1.46,1.14,2.84,1.66,4.28.26.73,1.07,1.26,1.35,2,.74,1.93,1,4,1.91,5.93.08.17.62.12.7.29A94.84,94.84,0,0,0,429,555.79a53.24,53.24,0,0,0-6.34,9.35A31.66,31.66,0,0,0,419,575.53c-.5,4.26.18,8,2.62,10.45,3.24,3.24,8.8,3.86,14.9,2a46.74,46.74,0,0,1,15.69-2.41c5.27.25,10.46,1.79,15.53,3.5.29.13.48.44.77.57,1.88.84,3.94,1.3,5.89,2,.18.06.23.5.41.57A90.56,90.56,0,0,0,488,595.8a49.72,49.72,0,0,0,2.19,10.72,31,31,0,0,0,5.28,9.72c2.66,3.37,5.75,5.17,9.2,5.17,4.58,0,8.95-3.09,12-8.7a45.67,45.67,0,0,1,9.89-12.25,57.28,57.28,0,0,1,12.81-9.34c.3-.11.8.28,1.09.16,1.93-.74,3.53-2.26,5.42-3.14.17-.08.57.34.74.26a88.85,88.85,0,0,0,11.94-6.53A49.46,49.46,0,0,0,567.6,588a32.24,32.24,0,0,0,10.62,3.51,11.94,11.94,0,0,0,10.15-3.44c3.24-3.24,4.37-8.49,2.54-14.59-1.57-5.21-2.91-10.48-2.63-15.82a58.91,58.91,0,0,1,3.4-15.78A96.38,96.38,0,0,0,595.88,532.16Zm-39.09-21.37a52.11,52.11,0,0,1-3.45,13.27,50.89,50.89,0,0,1-7.14,11.72c-.1.13-.38.12-.49.25-.69.85-1.68,1.43-2.43,2.24-.47.49-.85,1.05-1.33,1.53-.32.31-.23,1-.55,1.33-4.07,3.8-9.18,6.23-14.25,8.55-.62.28-.92,1.3-1.55,1.55-.44.19-1.12-.22-1.57-.05a51.79,51.79,0,0,1-8.21,2.76c-.18,0-.47-.52-.65-.49-1.34.23-2.66.42-4,.54-.78.07-1.52.92-2.3,1s-1.72-.45-2.57-.45c-1.2,0-2.37-.26-3.56-.35-.38,0-.81.4-1.2.37a50.42,50.42,0,0,1-13.76-3.23c-4.38-1.77-8.21-4.64-11.92-7.51a52.47,52.47,0,0,1-10-9.83,51.7,51.7,0,0,1-6.88-12.28,47.27,47.27,0,0,1-2.48-26.13,51.42,51.42,0,0,1,3.69-12.7,52,52,0,0,1,7.38-10.92c2.81-3.41,5.63-6.86,9.21-9.46a58.78,58.78,0,0,1,22.65-8.88,52.14,52.14,0,0,1,11.24,0,36.62,36.62,0,0,1,21.26,6.59c.62.37,1.64.07,2.24.46s.61,1.17,1.09,1.5c1,.72,1.93,1.56,2.89,2.34.13.11.61-.21.74-.1,1.18,1,2.11,2.25,3.21,3.34,0,0,.33-.2.36-.17a52.7,52.7,0,0,1,6.47,7.53,51.65,51.65,0,0,1,4.52,8.82,51,51,0,0,1,3.71,13.21A52,52,0,0,1,556.79,510.79Z"/><path class="cls-1" d="M506.56,492.88A11.12,11.12,0,1,0,517.63,504,11.1,11.1,0,0,0,506.56,492.88Z"/></svg>
