<svg id="Layer_1" data-name="Layer 1" xmlns="http://www.w3.org/2000/svg" viewBox="0 0 1000 779.09"><defs><style>.cls-1{fill:#fff;}</style></defs><polygon class="cls-1" points="179.96 676.66 183.47 678.18 186.87 679.93 188.15 679.71 190.86 677.53 193.47 675.23 196.08 672.93 198.55 670.47 201.22 668.24 203.74 665.84 206.32 663.51 208.97 661.25 211.38 658.72 214.03 656.46 216.49 654 219.06 651.65 218.75 649.73 214.96 647.96 211.05 646.47 209.87 646.53 207.34 648.93 204.83 651.34 202.26 653.69 199.66 656.01 196.98 658.23 194.5 660.7 193.81 660.82 193.36 660.21 193.54 656.73 193.58 653.25 193.94 649.78 193.91 646.29 194.24 642.83 194.24 639.34 193.66 638.17 190.49 636.91 187.47 635.33 186.14 635.35 183.56 637.69 180.99 640.02 178.31 642.22 175.78 644.6 173.08 646.77 170.59 649.21 169.92 649.08 169.53 648.6 169.56 645.11 169.81 641.63 170.3 638.18 170.39 634.69 170.89 631.24 171.09 627.76 170.39 626.64 167.41 625.27 164.65 623.51 161.69 622.14 158.93 620.37 157.21 621.48 156.84 624.97 156.57 628.46 156.35 631.96 156.23 635.47 155.97 638.96 155.56 642.45 155.38 645.95 155.21 649.45 155.18 652.96 155.09 656.46 154.93 659.96 154.63 663.46 155.46 664.42 158.64 666.34 161.97 667.97 163.34 667.9 166.29 665.3 169.38 662.87 172.36 660.32 175.38 657.81 178.34 655.22 179.12 655.3 179.63 655.83 179.43 659.79 179.32 663.74 179.17 667.69 179.37 671.64 179.4 675.6 179.96 676.66"/><path class="cls-1" d="M220.93,672.57,219.86,676l-.43,3.54.2,3.55.94,3.44,1.6,3.17,2.2,2.78,2.41,2.58,2.66,2.36,3,1.89,3.2,1.57,3.33,1.24,3.37,1.07,3.42,1,3.53.32,3.53.2,3.53-.3,3.42-.91,3.3-1.3L266,700l2.44-2.56,1.82-3,1.6-3.17.77-3.37.09-3.44-.42-3.4-.92-3.3-1.6-3-2-2.82-2.37-2.51-2.76-2.06-2.93-1.83L256.64,664l-3.15-1.41-3.28-1.07-3.39-.69-3.4-.58-3.45-.06-3.43.22-3.37.77L230,662.53l-2.85,1.92-2.47,2.37-2.2,2.66Zm36.57,13.71-.11.32L255.67,690,253,692.72l-3.45,1.61-3.8.44-3.83-.63-3.37-1.9L236,689.35l-1.58-3.46-.32-3.8.8-3.77L235,678l1.92-3.29,2.57-2.82,3.5-1.53,3.79-.33,3.73.74,3.27,1.94,2.68,2.67,1.62,3.43.46,3.79Z"/><path class="cls-1" d="M283.43,695l-.74,3.45-.1,3.53.46,3.5,1.35,3.26,1.84,3,2.18,2.77,2.7,2.26,2.88,2,3.15,1.62,3.34,1.14,3.36,1.07,3.42.92,3.52.38,3.52.1,3.51-.23,3.46-.6,3.38-1,3-1.82,2.65-2.32,2.16-2.76,1.82-3,1-3.4.41-3.74-.11-3.76-.82-3.69-1.74-3.35L331,691.12l-2.81-2.53-3.07-2.2-3.34-1.74-3.43-1.58-3.67-.94-3.65-1-3.75-.49-3.78-.14-3.77.39L296.07,682l-3.53,1.35-3.11,2.15-2.51,2.82-2,3.2Zm37.42,10.2-.08.34-1.38,3.59L316.9,712l-3.23,2.08-3.79.8-3.82-.57-3.55-1.47-2.81-2.6-1.87-3.32-.78-3.76.61-3.81.23-.3,1.36-3.54,2.38-3,3.28-1.95,3.76-.66,3.73.58,3.51,1.41,2.91,2.44,1.92,3.29.47,3.76Z"/><path class="cls-1" d="M354.82,692.25l-1.4.91-.75,3.4-.77,3.38-.64,3.42-.56,3.42-.67,3.41-.76,3.38-.83,3.37-.6,3.42-.7,3.4-.7,3.4-.79,3.38,1.08,1.42,3.39.76,3.44.53,3.4.66,3.42.58,3.38.83,3.44.49,3.46.4,3.46.39,3.47-.2L381,736l3.37-.83,3.24-1.24,2.88-2,2.42-2.48,2-2.83,1.1-3.3L397,720l.19-3.73-.48-3.69-1.1-3.57-2-3.14-2.54-2.7-3-2.24-3.29-1.73-3.41-1.49-3.61-.92-3.62-.88-3.87-.71-3.87-.71-3.9-.59-3.85-.82Zm27.42,25.54-1.15,3.62-2.33,3-3.21,2-3.67.92-3.82-.08-2.72-.44-2.71-.56-.42-.72.56-3.63.67-3.6.66-3.6.76-3.59.6-3.61.74-3.59.62-.53,5.27.94,3.63,1,3,2.23,2.36,2.89,1.25,3.55Z"/><polygon class="cls-1" points="464.92 738.35 461.55 738.12 458.24 737.39 454.93 736.67 451.74 735.51 448.73 733.95 445.87 732.15 445.1 731.76 444 732.34 441.95 735.22 439.7 737.94 439.87 739.54 443.02 741.49 446.39 743.03 449.82 744.42 453.37 745.49 457.01 746.23 460.68 746.75 464.39 746.9 468.08 747.01 471.75 746.64 475.4 746.11 478.89 744.88 482.12 743.1 484.8 740.6 486.67 737.45 487.36 733.82 487.19 733.7 486.66 730.06 484.51 727.06 481.58 724.82 478.26 723.21 474.81 721.9 471.25 720.92 467.67 720.03 464.07 719.19 460.51 718.24 457.93 715.97 460.48 713.79 464.23 713.39 468.07 713.88 471.86 714.65 475.55 715.8 479.07 717.41 479.69 717.62 480.69 717.1 482.54 714.18 484.45 711.3 484.07 709.86 481.08 708.24 477.89 707.03 474.58 706.26 471.25 705.58 467.87 705.16 464.47 704.96 461.03 704.81 457.62 705.23 454.24 705.78 451.01 706.91 447.95 708.47 445.39 710.75 443.69 713.73 443.01 717.08 442.93 717.19 443.3 720.93 445.16 724.2 448.1 726.55 451.49 728.15 454.98 729.52 458.59 730.57 462.28 731.3 465.93 732.19 469.46 733.4 471.98 735.77 469.04 738.21 464.92 738.35"/><polygon class="cls-1" points="548.6 706.04 547.52 704.23 543.1 704.57 538.69 704.89 537.78 705.53 535.85 708.35 534.01 711.23 532.22 714.13 530.27 716.92 528.41 719.78 526.43 722.56 526.02 722.95 525.49 722.61 523.33 719.96 521.13 717.36 518.94 714.75 516.85 712.05 514.83 709.31 512.83 706.54 511.74 706.04 508.43 706.1 505.13 706.17 501.83 706.34 498.52 706.36 497.53 708.19 499.58 710.95 501.75 713.63 503.74 716.43 505.88 719.13 507.88 721.93 510.09 724.55 512.29 727.19 514.45 729.86 516.49 732.64 516.61 732.93 516.9 737.05 517.02 741.17 517.02 745.3 518.38 746.3 521.55 746.34 524.7 746.06 527.87 746.06 531.03 745.92 532.31 744.67 531.98 740.55 531.75 736.44 531.54 732.31 531.68 731.94 533.69 729.15 535.51 726.23 537.56 723.46 539.48 720.6 541.33 717.71 543.2 714.83 544.93 711.85 546.82 708.98 548.6 706.04"/><polygon class="cls-1" points="581.19 708.78 585.05 708.53 588.92 708.58 592.77 709.09 596.45 710.32 597.16 710.34 598.04 709.59 599.51 706.45 600.97 703.32 600.26 701.73 596.95 700.9 593.63 700.15 590.24 699.8 586.82 699.75 583.42 699.94 580.01 700.25 576.61 700.73 573.32 701.73 570.07 702.82 566.98 704.32 564.41 706.6 562.2 709.19 561.01 712.4 560.9 715.8 560.78 715.92 561.84 719.51 564.28 722.31 567.49 724.17 571 725.48 574.73 725.97 578.47 726.37 582.21 726.65 585.97 726.82 589.67 727.48 592.58 729.44 589.96 732.17 586 733.24 582.62 733.54 579.23 733.4 575.85 733.1 572.53 732.41 569.29 731.43 566.16 730.17 565.34 730.05 564.37 730.71 562.67 733.8 560.94 736.88 561.44 738.48 564.92 739.78 568.48 740.79 572.09 741.62 575.77 742.03 579.48 742.25 583.19 742.2 586.89 741.84 590.53 741.15 594.12 740.28 597.56 738.94 600.9 737.35 603.75 735 606.05 732.13 607.37 728.68 607.26 725 607.22 724.89 606.03 721.43 603.52 718.72 600.18 717.15 596.69 715.93 593.05 715.26 589.37 714.85 585.67 714.7 581.99 714.39 578.32 713.99 575.26 712.26 577.49 709.54 581.19 708.78"/><polygon class="cls-1" points="644.87 698.74 648 697.99 651.14 697.33 654.29 696.74 657.38 695.81 658.23 694.53 657.52 691.43 656.93 688.3 655.42 687.56 651.79 688.4 648.17 689.27 644.51 689.99 640.88 690.81 637.22 691.53 633.57 692.28 629.94 693.1 626.25 693.65 622.59 694.37 618.95 695.16 615.29 695.85 614.35 697.09 614.87 700.23 615.27 703.39 616.78 704.34 619.95 703.81 623.08 703.15 626.24 702.59 629.38 701.95 630.04 702.43 630.82 706.11 631.53 709.8 632.19 713.51 632.92 717.2 633.6 720.89 634.39 724.56 635.26 728.22 635.96 731.92 637.35 732.87 640.44 732.11 643.59 731.65 646.67 730.89 649.79 730.27 650.81 728.85 649.98 725.18 649.28 721.48 648.44 717.82 647.7 714.13 646.89 710.46 645.96 706.82 645.1 703.16 644.45 699.45 644.87 698.74"/><polygon class="cls-1" points="687.58 688.08 691.17 686.93 694.78 685.86 698.46 684.99 702.03 683.8 705.58 682.57 709.21 681.54 712.82 680.46 713.55 678.91 712.73 675.84 711.71 672.82 710.14 672.22 706.66 673.25 703.2 674.35 699.71 675.34 696.28 676.52 692.77 677.47 689.34 678.66 685.84 679.62 682.31 680.46 678.81 681.41 675.32 682.41 671.82 683.37 670.97 684.79 671.94 688.13 672.8 691.49 673.54 694.89 674.53 698.22 675.38 701.58 676.34 704.92 677.11 708.3 678.07 711.63 678.88 715 679.68 718.38 680.47 721.77 682.1 722.45 685.53 721.66 688.95 720.83 692.34 719.91 695.67 718.73 699.05 717.77 702.45 716.84 705.82 715.83 709.23 714.96 712.58 713.87 715.96 712.9 719.28 711.72 722.59 710.53 723.51 709.13 722.59 706.08 721.48 703.1 719.93 702.36 716.71 703.46 713.44 704.41 710.18 705.41 706.98 706.57 703.74 707.6 700.41 708.33 697.21 709.49 693.89 710.3 693.24 709.9 692.25 706.93 691.5 703.9 691.9 703.3 695.46 702.16 699 701.01 702.63 700.15 706.15 698.94 709.69 697.75 710.68 696.36 709.74 693.5 708.83 690.63 707.21 689.84 703.68 690.89 700.17 691.99 696.7 693.23 693.13 694.11 689.61 695.22 688.89 694.78 688.03 691.78 687.19 688.77 687.58 688.08"/><polygon class="cls-1" points="742.05 682.48 742.75 682.41 745.45 684.99 748.29 687.38 751.12 689.79 753.99 692.15 756.95 694.39 759.9 696.65 761.12 696.92 765.31 695.27 766.09 694.26 766.84 690.54 767.47 686.79 768.03 683.04 768.65 679.3 769.27 675.56 769.7 671.79 770.19 671.45 770.8 671.66 772.29 675.09 773.77 678.52 775.34 681.91 776.67 685.4 778.19 688.82 779.72 689.33 782.71 688.1 785.66 686.81 788.6 685.49 791.64 684.38 792.34 682.74 790.97 679.55 789.37 676.46 788.18 673.19 786.64 670.07 785.36 666.85 783.8 663.75 782.55 660.5 781.01 657.4 779.65 654.2 778.31 651 776.93 647.81 775.35 647.32 771.64 648.84 767.96 650.41 764.23 651.9 763.54 653.01 763.06 656.77 762.24 660.49 761.89 664.27 761.12 667.98 760.32 671.68 759.75 675.42 759.04 679.15 758.68 679.65 758.12 679.47 755.13 677.3 752.24 675.01 749.53 672.5 746.68 670.17 743.78 667.9 741.18 665.29 738.33 662.95 737.05 662.69 733.45 664.05 729.82 665.27 726.26 666.77 725.45 668.17 726.63 671.43 727.63 674.76 729.01 677.96 730.02 681.28 731.18 684.55 732.22 687.87 733.39 691.13 734.76 694.32 735.82 697.63 737.08 700.87 737.95 704.24 739.7 704.9 743.51 703.66 747.2 702.08 748 700.64 746.92 697.08 745.61 693.6 744.12 690.2 742.87 686.7 741.81 683.13 742.05 682.48"/><polygon class="cls-1" points="843.83 644.12 843.78 644.01 841.43 641.15 838.02 639.63 834.32 639.15 830.58 639.46 826.87 640.06 823.19 640.88 819.55 641.88 815.98 643.08 812.31 643.99 808.86 643.27 809.95 639.9 813.27 637.9 816.95 636.42 820.7 635.14 824.56 634.19 828.53 633.88 829.17 633.74 829.77 632.8 830.18 629.33 830.52 625.86 829.32 624.69 825.85 625.04 822.39 625.5 819 626.36 815.66 627.42 812.49 628.91 809.36 630.46 806.22 631.99 803.28 633.88 800.68 636.21 798.32 638.76 796.29 641.59 795.22 644.9 795.18 648.35 796.03 651.7 796 651.84 798.14 654.56 800.97 656.5 804.35 657.17 807.81 657.3 811.23 656.73 814.63 656 818.02 655.24 821.33 654.16 824.66 653.15 828.06 652.4 831.22 653.44 829.65 657.01 826.14 659.34 823.01 660.83 819.71 661.93 816.36 662.82 812.93 663.38 809.47 663.62 806.02 663.28 805.2 663.59 804.48 664.5 803.99 668.02 803.31 671.51 804.27 672.82 808.06 673.02 811.84 672.65 815.58 672.01 819.26 671.15 822.86 669.96 826.44 668.72 829.86 667.06 833.11 665.17 836.2 663.03 839.13 660.68 841.75 658 843.75 654.83 845 651.32 845.24 647.58 843.83 644.12"/><polygon class="cls-1" points="405.29 42.77 409.03 42.72 412.77 42.63 416.51 42.62 420.26 42.82 421.05 43.44 420.94 47.13 421.02 50.81 420.91 54.5 420.95 58.19 420.91 61.88 420.89 65.57 420.92 69.26 420.87 72.95 420.92 76.64 421.05 80.34 422.39 81.73 425.94 81.81 429.48 81.81 433.03 81.86 436.58 81.65 438.11 80.34 437.94 76.65 437.89 72.96 437.92 69.27 438.07 65.59 438.11 61.9 438.01 58.21 437.89 54.52 438.1 50.83 438 47.14 437.91 43.44 438.71 42.64 442.45 42.66 446.19 42.67 449.94 42.82 453.68 42.78 455.2 41.31 455.01 37.41 454.98 33.51 453.68 32.2 449.96 32.12 446.24 31.97 442.52 32.19 438.8 32.03 435.08 32.06 431.36 32.03 427.64 32.1 423.92 32 420.19 32.17 416.47 32.14 412.75 32.16 409.02 31.98 405.29 31.97 403.84 33.51 403.92 37.41 403.89 41.31 405.29 42.77"/><polygon class="cls-1" points="473.61 81.63 477.15 81.79 480.7 81.66 484.25 81.65 487.8 81.77 489.24 80.34 489.11 76.58 489.1 72.82 489.33 69.06 489.1 65.3 489.24 61.53 489.93 60.78 493.78 60.7 497.64 60.93 501.5 60.7 505.36 60.92 509.23 60.92 509.96 61.53 509.8 65.29 509.82 69.05 510.03 72.81 509.82 76.57 509.88 80.34 511.36 81.85 514.9 81.73 518.44 81.82 522 81.72 525.55 81.82 527.1 80.34 526.92 76.74 527.01 73.14 526.85 69.54 527.05 65.94 527.01 62.34 527.07 58.73 526.89 55.13 526.92 51.53 527.01 47.93 526.97 44.33 527.05 40.72 527 37.12 527.01 33.51 525.55 32 522 32.12 518.46 32.15 514.91 32.11 511.36 31.99 509.83 33.51 510.02 37.49 510.05 41.48 509.88 45.48 509.98 49.47 509.23 50.3 505.37 50.29 501.51 50.14 497.65 50.05 493.79 50.28 489.93 50.24 489.08 49.47 489.1 45.48 489.21 41.5 489.17 37.5 489.08 33.51 487.8 32.1 484.25 32.14 480.71 32.14 477.16 31.98 473.61 32.04 472.21 33.51 472.19 37.11 472.22 40.7 472.2 44.31 472.25 47.91 472.09 51.51 472.13 55.11 472.07 58.71 472.31 62.31 472.21 65.91 472.32 69.52 472.19 73.12 472.07 76.73 472.13 80.34 473.61 81.63"/><polygon class="cls-1" points="547.81 81.83 551.42 81.83 555.02 81.84 558.63 81.75 562.23 81.68 565.84 81.83 569.45 81.65 573.05 81.76 576.66 81.79 580.27 81.72 583.88 81.65 587.48 81.63 591.1 81.68 594.71 81.79 596.15 80.34 596.01 76.43 596.15 72.53 594.71 71.05 590.89 71.02 587.07 71.07 583.25 71.05 579.43 71.15 575.61 71.16 571.79 71.11 567.96 71.02 564.13 71.21 563.32 70.4 563.48 66.57 563.52 62.74 564.13 62.04 567.65 62.09 571.17 61.95 574.7 62.15 578.22 62.01 581.75 61.96 585.28 62.01 586.79 60.61 586.61 56.92 586.77 53.23 585.28 51.74 581.76 51.81 578.24 51.84 574.71 51.94 571.19 51.79 567.66 51.88 564.13 51.89 563.47 51.1 563.45 47.27 563.43 43.44 564.13 42.73 567.95 42.83 571.77 42.82 575.6 42.84 579.41 42.7 583.24 42.62 587.06 42.79 590.88 42.74 594.71 42.73 596.12 41.31 596.24 37.41 596.12 33.51 594.71 32.16 591.11 32.11 587.5 32.07 583.9 32.1 580.29 32.15 576.69 32.07 573.08 32.09 569.47 32.1 565.86 32.02 562.26 32.11 558.65 31.97 555.04 32.18 551.43 31.97 547.81 32.08 546.39 33.51 546.37 37.11 546.4 40.7 546.36 44.31 546.37 47.91 546.39 51.51 546.3 55.11 546.47 58.71 546.37 62.31 546.5 65.91 546.45 69.52 546.3 73.12 546.35 76.73 546.39 80.34 547.81 81.83"/><path class="cls-1" d="M399.67,546.3c1.57,1.15,3.83,1.62,6.21,2.29a28.29,28.29,0,0,0,6.4,1.43c.23,2.43.87,4.7,1.25,7.08s1,4.73,1.49,7.07.56,4.87,1.26,7.17,1.73,4.54,2.58,6.8,2.05,4.38,3.06,6.57,1.91,4.44,3.06,6.56,2.56,4.1,3.85,6.14,2.57,4.09,4,6,2.5,4.19,4.06,6,3.76,3.12,5.44,4.86,2.87,4,4.66,5.61,4.08,2.65,6,4.16,3.42,3.49,5.41,4.87,4.25,2.33,6.33,3.57,4.16,2.45,6.32,3.55,4.41,1.95,6.64,2.89,4.49,1.73,6.78,2.52,4.45,1.92,6.8,2.56,4.74.9,7.12,1.38,4.76.64,7.17,1,4.73,1,7.16,1.14,4.81.19,7.25.19,4.75-.16,7.11-.31,4.75-.3,7.09-.6,4.7-.71,7-1.17,4.76-.58,7-1.19,4.38-2,6.62-2.72,4.61-1.25,6.79-2.16,4.44-1.75,6.56-2.81,3.94-2.71,6-3.9,4.19-2.24,6.16-3.57,3.86-2.75,5.74-4.2,3.46-3.23,5.23-4.81c0,0,.39.21.38.2A22.48,22.48,0,0,0,579,613.23a29.69,29.69,0,0,0-7.29-1.3,30.86,30.86,0,0,0-7.39.74c-2.36.54-4.42,2.08-6.66,3.19s-4.89,1.77-7.32,2.71-4.73,2.2-7.24,2.91-5,1.3-7.61,1.78-5.14.71-7.75,1-5.17.2-7.79.2-4.92-.35-7.35-.57-4.86-.66-7.26-1.1-4.95-.48-7.3-1.12-4.59-1.83-6.88-2.67-4.48-2-6.69-3-4.54-1.89-6.66-3.11-4-2.87-6-4.27-4-2.79-5.9-4.37-3.76-3.13-5.5-4.86-3.63-3.33-5.21-5.21-3.18-3.76-4.6-5.77-2.37-4.31-3.61-6.43-2.23-4.34-3.28-6.57-2.48-4.26-3.34-6.57-1.09-4.78-1.74-7.16-1.89-4.59-2.32-7-.25-4.91-.47-7.38-.18-4.86-.18-7.34.1-4.85.31-7.33.53-4.81.95-7.19.28-4.92.91-7.25,2-4.45,2.85-6.72,1.09-4.82,2.11-7,2.37-4.26,3.58-6.36,2.82-4,4.2-5.95,2.73-4,4.29-5.86,2.93-3.91,4.63-5.64,3.82-3,5.66-4.6,3.87-2.89,5.84-4.3,3.56-3.43,5.65-4.67,4.32-2.25,6.51-3.31,4.61-1.54,6.88-2.41,4.41-2.07,6.75-2.74,4.79-.79,7.18-1.25,4.76-.71,7.18-1,4.78-.76,7.23-.8c2.3,0,4.6-.3,6.86-.16s4.62.24,6.86.55,4.41,1.41,6.62,1.91,4.51.82,6.68,1.49,4.36,1.41,6.47,2.26,4.14,1.93,6.18,2.95c2.2,1.1,4.64,1.39,7,1.89s4.73,1.24,7.13,1.14a28.33,28.33,0,0,0,7-1.59,28.68,28.68,0,0,0,6.5-3,30.32,30.32,0,0,0,6.08-4.13c-1.77-1.57-3.84-3-5.72-4.48s-3.53-3.23-5.5-4.56-4.39-1.93-6.44-3.13-4-2.58-6.1-3.64-4.29-2-6.49-2.92-4.31-2-6.56-2.76-4.65-1-7-1.58-4.51-1.48-6.85-1.94-4.61-1.12-7-1.43-4.71-.67-7.09-.83-4.75.44-7.14.44-4.8-.56-7.16-.41-4.77.52-7.12.83-4.7.88-7,1.34-4.64,1.11-6.93,1.73-4.67,1-6.92,1.81-4.27,2.17-6.46,3.09-4.54,1.52-6.66,2.59-4.08,2.46-6.13,3.67-4.1,2.41-6.07,3.75-4,2.55-5.91,4-3.73,3-5.51,4.56-3.25,3.48-4.92,5.18-3.17,3.53-4.73,5.33-3.34,3.41-4.77,5.31-2.71,3.91-4,5.9-2.29,4.16-3.46,6.24-2.37,4.1-3.4,6.25-2,4.29-2.93,6.5-1.85,4.38-2.6,6.65a63.36,63.36,0,0,1-2.58,6.72c-1,2.19-2,4.36-3.24,6.44s-2.37,4.2-3.75,6.16-3.23,3.58-4.76,5.44-2.7,4-4.34,5.77a5.33,5.33,0,0,0-1.74,3.84A6.63,6.63,0,0,0,399.67,546.3Z"/><path class="cls-1" d="M569.75,555.62a48.89,48.89,0,0,0,1.28-5.84,29.14,29.14,0,0,0,6.15-1.1A18,18,0,0,0,582.8,546a7.08,7.08,0,0,0,3-5.34c0-2.55-2.17-4.69-5.3-6.37a26,26,0,0,1-5-4.19,30.31,30.31,0,0,1-4.57-4.7,34.4,34.4,0,0,1-2.86-5.92l-.25.08a41.79,41.79,0,0,1-1-6.78,44.35,44.35,0,0,1-.23-6.82,46.17,46.17,0,0,1,.33-6.86c.52-2.75.37-5.13-1.15-6.65a6.94,6.94,0,0,0-5.88-1.67A18.32,18.32,0,0,0,554,493a29.93,29.93,0,0,0-5.21,3.6,51.82,51.82,0,0,0-8.74-4.93,41,41,0,0,1-5.93-3.76,44.83,44.83,0,0,1-5.18-4.76,47.53,47.53,0,0,1-4.46-5.45C523,475.4,521.06,474,518.9,474c-1.93,0-3.71,1.12-5.19,3a17.5,17.5,0,0,0-3,5.46,29.68,29.68,0,0,0-.89,6.24c-1.16.24-2.43.34-3.56.66,0,0-.06.14-.1.15-.8.23-1.64.32-2.43.58-1.46.47-2.82,1.25-4.25,1.85a41.94,41.94,0,0,1-6.7,1,45,45,0,0,1-6.75.61,47.93,47.93,0,0,1-6.69-1.13c-2.74-.52-5.28-.12-6.81,1.4-1.36,1.37-1.59,3.54-1.31,5.92A17.37,17.37,0,0,0,473,505.6a29.83,29.83,0,0,0,3.67,5.1,49,49,0,0,0-2.77,4.94,51.67,51.67,0,0,0-2.45,5,43.07,43.07,0,0,1-3.73,5.52,63.27,63.27,0,0,1-9.83,9c-2.31,1.57-3.62,3.41-3.62,5.56a6.51,6.51,0,0,0,2.85,5.16,17.77,17.77,0,0,0,5.57,2.58,28.12,28.12,0,0,0,6,1.48c.08.44.11.84.2,1.27s.4,1.12.54,1.69.16,1.47.37,2.16.64,1.58.92,2.38c.15.41.6.71.76,1.11.41,1.08.58,2.25,1.06,3.3,0,.1.35.07.4.17a51.81,51.81,0,0,0,3.75,6.79,29.39,29.39,0,0,0-3.53,5.21,17.9,17.9,0,0,0-2,5.79c-.28,2.38.11,4.47,1.47,5.83,1.8,1.81,4.9,2.15,8.3,1.13a26.08,26.08,0,0,1,8.75-1.34,32.4,32.4,0,0,1,8.66,2c.16.07.26.25.43.32,1.05.46,2.2.72,3.28,1.12.1,0,.13.28.23.32a49.87,49.87,0,0,0,7.34,2,28,28,0,0,0,1.22,6,17.42,17.42,0,0,0,2.95,5.42,6.52,6.52,0,0,0,5.12,2.88c2.56,0,5-1.72,6.68-4.85a25.51,25.51,0,0,1,5.51-6.83,31.63,31.63,0,0,1,7.15-5.2c.16-.07.44.15.6.08,1.08-.41,2-1.26,3-1.74.1-.05.32.18.42.14a48.87,48.87,0,0,0,6.65-3.64,28.12,28.12,0,0,0,5.05,3.42,17.84,17.84,0,0,0,5.93,2,6.66,6.66,0,0,0,5.65-1.92c1.81-1.8,2.44-4.73,1.42-8.13a26.14,26.14,0,0,1-1.47-8.83,32.84,32.84,0,0,1,1.9-8.79A53,53,0,0,0,569.75,555.62ZM548,543.7a26.35,26.35,0,0,1-5.9,13.93c-.06.08-.22.07-.28.14-.38.47-.94.8-1.36,1.25-.26.27-.47.59-.74.85s-.12.58-.3.75a29.06,29.06,0,0,1-8,4.76c-.34.16-.51.73-.86.87s-.63-.13-.88,0a28.57,28.57,0,0,1-4.57,1.54c-.1,0-.26-.29-.37-.28-.75.13-1.48.24-2.23.31-.44,0-.85.51-1.28.53s-1-.26-1.43-.26c-.68,0-1.33-.14-2-.19-.22,0-.45.22-.67.2a28.14,28.14,0,0,1-7.67-1.79,29,29,0,0,1-6.65-4.19,29.61,29.61,0,0,1-5.59-5.48,28.58,28.58,0,0,1-3.83-6.85A26.26,26.26,0,0,1,492,535.19a28.36,28.36,0,0,1,2.06-7.07,28.89,28.89,0,0,1,4.11-6.1,29.49,29.49,0,0,1,5.14-5.27A32.86,32.86,0,0,1,516,511.8a42.3,42.3,0,0,1,12.48.91,28.58,28.58,0,0,1,5.64,2.76c.34.2.91,0,1.24.25s.35.66.61.84c.57.4,1.08.87,1.61,1.31.08.06.34-.12.41-.06.67.55,1.19,1.26,1.79,1.86,0,0,.19-.11.21-.09a29.28,29.28,0,0,1,3.6,4.19,29.68,29.68,0,0,1,2.53,4.92,28.82,28.82,0,0,1,2.06,7.37A29.17,29.17,0,0,1,548,543.7Z"/><path class="cls-1" d="M520,533.72a6.2,6.2,0,1,0,6.17,6.19A6.19,6.19,0,0,0,520,533.72Z"/><polygon class="cls-1" points="112.82 559.03 120.17 559.11 127.33 558.79 134.49 559.13 141.65 558.85 148.81 559.04 155.96 558.83 163.12 558.86 170.28 558.91 177.44 558.78 184.59 558.79 191.75 558.69 198.91 558.76 206.07 558.93 213.23 558.96 220.38 558.79 227.54 558.8 234.71 559.07 241.87 558.84 249.03 558.66 256.19 558.98 263.35 558.66 270.51 558.7 277.68 558.97 284.84 558.79 292 558.69 299.16 558.94 306.32 558.67 313.49 558.97 320.65 559.02 327.81 559.04 334.97 559.05 342.14 558.73 349.31 558.98 356.47 558.89 356.6 548.83 349.32 549.03 342.17 549 335 548.71 327.85 548.97 320.69 548.84 313.53 549.07 306.38 549.03 299.22 549.06 292.06 548.97 284.9 548.73 277.74 548.97 270.58 548.8 263.43 549 256.27 549.12 249.11 549.05 241.95 548.74 234.79 548.89 227.63 548.74 220.47 549.11 213.3 548.87 206.14 548.92 198.98 548.67 191.82 548.92 184.65 548.88 177.49 549.1 170.33 548.89 163.17 549.01 156.01 548.92 148.84 548.75 141.68 548.89 134.52 549.05 127.35 548.87 120.18 548.67 113.03 548.93 112.82 559.03"/><polygon class="cls-1" points="886.86 549.01 879.87 549.01 872.74 549.06 865.62 548.94 858.49 548.91 851.36 549.13 844.23 548.97 837.11 548.98 829.99 548.99 822.87 548.89 815.74 548.99 808.62 549.11 801.49 549.15 794.37 548.85 787.24 548.82 780.11 548.75 772.99 548.86 765.86 548.85 758.74 549.05 751.61 548.9 744.48 548.86 737.35 548.71 730.22 548.76 723.09 548.75 715.96 548.7 708.83 548.72 701.7 548.93 694.58 548.76 687.45 549.05 680.32 548.99 673.19 549.08 666.06 549.06 658.93 549.15 651.8 548.94 644.66 548.75 637.41 548.83 637.58 558.86 644.65 558.97 651.77 558.93 658.9 559.05 666.03 558.78 673.15 558.96 680.28 559.05 687.4 559.04 694.52 558.72 701.65 558.97 708.78 558.9 715.9 558.77 723.02 559.13 730.15 558.8 737.27 559.01 744.4 558.87 751.53 559.05 758.65 558.71 765.78 558.65 772.91 558.9 780.03 558.71 787.16 558.7 794.29 558.67 801.42 558.69 808.55 559 815.68 558.86 822.81 558.95 829.94 558.88 837.07 558.89 844.2 558.92 851.33 558.82 858.46 558.76 865.58 558.84 872.72 559.14 879.86 559.09 886.88 558.82 886.86 549.01"/><polygon class="cls-1" points="356.56 518.87 349.32 519.15 342.17 518.72 335 518.97 327.85 518.73 320.69 518.98 313.53 519.11 306.38 518.99 299.22 518.78 292.06 518.88 284.9 518.71 277.74 518.86 270.58 518.85 263.43 519 256.27 518.74 249.11 518.91 241.95 518.69 234.79 518.71 227.63 518.83 220.47 518.75 213.3 519.09 206.14 519.16 198.98 518.91 191.82 518.9 184.65 519.01 177.49 518.81 170.33 518.71 163.17 518.9 156.01 518.85 148.84 519.03 141.68 518.84 134.52 518.9 127.35 518.77 120.18 518.95 112.97 518.89 112.96 528.95 120.17 528.83 127.33 529.01 134.49 528.93 141.65 528.73 148.81 529.02 155.96 528.81 163.12 528.9 170.28 528.97 177.44 528.9 184.59 528.89 191.75 529.1 198.91 529.12 206.07 528.79 213.23 528.69 220.38 528.89 227.54 528.89 234.71 529.03 241.87 529.12 249.03 528.84 256.19 529.13 263.35 528.9 270.51 529.03 277.68 529.12 284.84 528.79 292 529.09 299.16 528.89 306.32 528.74 313.49 529 320.65 529.11 327.81 528.75 334.97 529.04 342.14 528.67 349.31 529.08 356.59 528.98 356.56 518.87"/><polygon class="cls-1" points="887.11 518.84 879.87 519.1 872.74 519.05 865.62 518.85 858.49 518.77 851.36 518.86 844.23 518.97 837.11 519.12 829.99 518.77 822.87 518.69 815.74 518.74 808.62 518.73 801.49 519 794.37 518.82 787.24 518.97 780.11 519.04 772.99 519 765.86 518.88 758.74 518.82 751.61 519.15 744.48 519.13 737.35 519.13 730.22 518.71 723.09 518.91 715.96 519.07 708.83 518.7 701.7 518.83 694.58 518.71 687.45 518.67 680.32 518.95 673.19 519.17 666.06 518.8 658.93 518.96 651.8 518.8 644.66 518.76 637.33 518.78 637.65 528.82 644.65 528.99 651.77 528.96 658.9 528.95 666.03 528.72 673.15 528.95 680.28 529.02 687.4 528.88 694.52 528.87 701.65 529.05 708.78 528.75 715.9 529.13 723.02 529.06 730.15 529.05 737.27 528.79 744.4 528.84 751.53 528.76 758.65 529.15 765.78 528.99 772.91 528.91 780.03 528.7 787.16 528.82 794.29 529.05 801.42 528.89 808.55 528.67 815.68 528.77 822.81 529.03 829.94 528.71 837.07 528.97 844.2 528.85 851.33 528.97 858.46 528.67 865.58 528.76 872.72 529.11 879.86 528.98 887.14 529.01 887.11 518.84"/><polygon class="cls-1" points="757.34 345.37 750.25 344.45 743.23 343.15 736.15 342.14 729.2 340.51 722.18 339.46 715.25 337.92 708.2 337.14 701.22 335.87 694.15 335.28 687.11 334.41 680.04 333.87 673.63 330.24 670.68 323.48 670.95 316.17 670.49 308.86 670.57 301.55 670.77 294.23 670.49 286.91 672.24 281.19 676.66 277.12 684.26 272.95 688.34 265.53 686.39 259.16 681.46 254.52 675.85 250.63 671.68 246.91 669.88 241.51 670.21 234.07 669.93 226.64 670.01 219.2 669.55 211.77 669.86 204.32 669.45 196.9 669.51 189.46 669.62 182.02 669.66 174.58 669.32 167.14 669.49 159.7 669.49 152.26 669.01 144.82 669.24 137.37 665.1 133.09 657.92 132.91 650.73 133.25 643.54 133.08 636.35 133.15 629.17 133.26 621.98 132.95 614.79 132.94 607.61 132.87 600.43 132.84 593.25 132.88 586.06 133.2 578.87 132.8 578.87 133.3 575.96 134.06 574.66 137.42 574.85 144.51 574.78 151.6 574.99 158.69 575.02 165.78 575.02 172.88 575.08 179.97 575.13 187.06 574.61 194.15 575.09 201.24 575.14 208.34 575 215.43 574.8 222.52 574.72 229.62 574.7 236.72 573.11 242.22 568.91 246.12 563.17 249.36 558.41 253.83 555.75 259.75 558.17 265.88 563.26 270.08 569.06 273.18 573.35 277.18 574.9 282.78 575.19 290.01 574.95 297.24 574.81 304.46 575.12 311.69 575.21 318.92 574.98 326.15 575.29 333.38 575.08 340.61 574.96 347.83 575.02 355.07 575.3 362.3 574.88 369.53 574.95 376.76 574.88 384 579.08 388.18 586.41 388.44 593.74 388.76 601.06 389.32 608.4 389.22 615.71 389.82 623.04 390.19 630.32 391.13 637.63 391.6 644.95 392.14 652.24 392.99 659.49 394.03 666.78 394.89 674.05 395.84 681.21 397.45 688.44 398.65 695.66 399.87 702.84 401.35 710.09 402.45 717.3 403.79 724.38 405.73 731.62 406.94 738.74 408.7 747.3 410.42 755.93 411.75 759.15 411.3 760.82 407.75 760.56 401.95 761.03 396.15 760.8 388.39 761.25 380.64 761.03 372.89 761.01 365.13 761.1 357.38 760.65 349.63 757.34 345.37"/><polygon class="cls-1" points="967.93 401.92 965.22 397.99 958.05 395.76 950.88 393.55 943.89 390.8 936.97 387.92 930.33 385.4 923.66 383.01 916.91 380.8 910.09 378.85 903.32 376.73 896.36 375.29 890.65 371.69 888.96 365.25 888.44 357.81 888.23 350.37 888.12 342.92 888.39 335.47 888.37 328.02 887.84 320.57 888.03 313.12 889.81 307 894.92 303.28 901.64 299.95 905.28 293.66 903.83 286.48 898.93 280.63 892.5 276.5 887.73 267.36 887.62 260.15 887.25 252.94 887.28 245.73 887.38 238.51 887 231.3 887.53 224.08 887.18 216.87 887.05 209.66 886.68 202.45 887.02 195.23 887.13 188.02 886.94 180.81 886.4 173.6 886.45 166.38 886.54 159.17 886.39 151.95 886.45 144.72 886.14 137.5 882.24 132.9 875.05 133.21 867.86 132.97 860.67 133.33 853.48 133.44 846.3 133.08 839.11 133.16 831.92 132.9 824.74 133.47 817.56 133.22 810.38 133.19 803.19 132.81 796 132.93 796 133.42 793.38 134.47 792.05 137.55 791.93 147.09 792.03 154.51 792.45 161.93 792.2 169.36 792.56 176.78 792.78 184.2 792.84 191.62 792.61 199.05 792.94 206.47 792.61 213.9 793.28 221.32 793.23 228.75 793.18 236.17 793.48 243.6 793.45 251.03 791.47 256.96 786.81 261.23 779.28 265.13 774.59 271.99 776.61 279.11 781.83 284.55 788.48 288.04 792.35 292.13 794.18 297.45 793.76 304.57 793.83 311.68 794.45 318.78 794.48 325.89 794.37 333.01 794.54 340.12 794.41 347.23 794.87 354.34 794.88 361.45 794.6 368.56 795.23 375.67 795.13 382.78 795.43 389.89 794.96 397 795.53 404.11 795.04 411.24 795.79 418.35 798.68 422.48 805.78 424.13 812.77 426.23 819.94 427.6 827.01 429.37 833.96 431.56 841.04 433.31 847.98 435.53 854.91 437.78 861.86 439.98 868.77 442.29 875.59 444.87 882.49 447.2 889.11 450.28 895.83 453.07 902.68 455.54 909.42 458.28 916.16 461.03 922.86 463.89 929.39 467.14 936.22 469.72 943.17 472.41 949.8 475.88 956.78 478.52 963.7 481.3 970.53 484.31 970.66 484.24 974.08 484.1 975.83 479.76 974.86 472.71 974.15 465.64 973.43 458.56 972.96 451.46 972.13 444.39 971.69 437.29 970.56 430.26 969.92 423.17 969.33 416.08 968.51 409.01 967.93 401.92"/><polygon class="cls-1" points="361.17 293.43 361.75 287.3 365.84 282.62 371.1 278.98 375.45 274.29 377.25 268.1 373.9 261.87 367.73 258.51 361.37 255.54 356.6 252.51 354.05 247.43 352.72 240.54 351.94 233.55 350.25 226.71 349.76 219.68 348.18 212.82 347.44 205.83 345.94 198.95 345.37 191.93 343.8 185.06 342.82 178.1 342.15 171.1 340.8 164.2 339.81 157.24 338.68 150.31 337.53 143.38 336.84 136.39 332.48 132.64 332.47 132.85 326.89 133.04 321.31 133.09 313.78 132.93 306.25 133.09 298.73 132.54 291.21 132.59 283.68 132.54 276.15 132.94 268.63 132.71 261.11 132.65 253.59 132.93 246.07 133.03 238.55 132.54 234.94 136.12 233.02 142.83 231.38 149.6 229.81 156.4 227.6 163.03 225.89 169.79 224.63 176.65 222.83 183.39 221.18 190.16 219.65 196.96 217.63 203.63 216.44 210.51 214.53 217.21 212.88 223.98 211.25 230.76 206.98 234.28 206.97 234.16 202.34 230.87 202.8 230.76 201.11 224.13 199.38 217.51 197.89 210.83 196.25 204.19 194.28 197.62 193.03 190.88 191.25 184.27 189.85 177.56 187.81 171.01 186.05 164.38 184.71 156.88 183.23 149.42 181.04 142.12 176.7 135.96 170.19 132.9 162.92 132.63 155.68 131.93 148.42 132.31 141.12 132.38 133.82 132.27 126.52 131.97 119.22 131.91 111.92 132.15 104.62 132.16 97.32 132.29 90.01 132.52 82.71 132.02 78.96 136.01 77.5 143.24 76.98 150.58 76.04 157.87 74.4 165.07 73.59 172.38 72.63 179.67 71.92 186.99 70.9 194.27 70 201.57 68.72 208.81 67.74 216.09 67.36 223.46 65.83 230.67 65.12 237.99 64.47 245.32 63.58 252.62 62.54 259.9 61.41 267.17 60.5 274.47 59.52 281.76 58.83 289.08 57.49 296.33 56.75 303.66 50.76 311.92 44.71 315 38.82 318.38 33.47 322.57 28.82 327.48 25.2 333.16 24.32 339.84 28.47 344.73 34.41 347.05 40.67 348.41 47.51 352.25 49.6 360.2 48.81 367.16 48.07 374.13 46.8 381.03 46.13 388.01 45.06 394.94 44.52 401.93 43.33 408.85 42.36 415.79 41.95 422.8 40.73 429.71 39.78 436.66 38.89 443.61 38.55 450.63 37.46 457.56 36.64 464.53 35.55 471.46 35.17 478.48 34.43 485.46 36.05 489.38 39.64 489.82 46.17 487.02 52.74 484.31 59.54 482.18 65.92 478.98 72.66 476.69 79.31 474.18 85.89 471.51 92.55 469.01 99.34 466.9 105.99 464.38 112.54 461.58 115.1 458.28 115.97 451.08 117.03 443.9 117.96 436.7 119.02 429.52 119.92 422.33 121.32 415.19 121.83 407.94 122.88 400.77 124.07 393.6 125.03 386.41 125.9 379.21 127 372.04 127.49 364.78 128.32 357.57 129.45 350.4 130.25 343.18 131.77 336.06 131.44 335.14 133.21 324.99 136.18 318.91 142.51 316.12 149.31 318.09 152.95 324.17 154.01 331.56 156.01 338.74 157.65 346.01 159.33 353.26 160.6 360.6 162.12 367.89 164.17 375.07 165.4 382.41 167.08 389.66 168.97 396.86 170.82 404.08 171.97 411.45 174.21 414 177.15 414.77 183.51 413.16 189.74 411.02 196.21 409.83 202.51 408.02 209.69 406.58 216.72 404.56 223.82 402.8 230.91 400.96 234.22 396.32 236.44 391.24 237.87 385.47 239.29 379.69 241.48 373.08 242.69 366.22 244.93 359.62 246.25 352.78 247.97 346.05 249.6 339.29 251.82 332.69 253.18 325.85 255.52 319.29 256.75 312.42 258.96 305.81 263 300.48 269.33 298.35 275.65 301.09 278.68 307.32 279.83 314.49 280.29 321.76 281.71 328.89 282.28 336.15 283.54 343.3 284.27 350.53 285.07 357.75 286.18 364.92 286.99 372.14 288.1 379.32 289.48 386.46 290.13 393.7 291.4 400.85 292.19 408.06 293.98 410.88 296.85 411.75 303.79 410.18 310.8 408.96 317.87 408.05 324.81 406.38 331.84 405.3 338.84 404 345.94 403.33 352.91 401.8 359.97 400.86 367.03 399.97 374.07 398.91 376.64 397.37 377.93 393.97 376.22 386.88 374.99 379.7 373.77 372.53 372.59 365.35 371.57 358.14 370.85 350.88 369.06 343.8 368.5 336.51 366.93 329.39 366.13 322.14 364.64 315 363.26 307.85 362.32 300.62 361.17 293.43"/><polygon class="cls-1" points="525.1 246.51 520.75 242.81 519.07 237.25 519.02 236.81 519.27 229.72 519.39 222.62 519.45 215.52 519.07 208.42 519.52 201.32 519.27 194.22 519.42 187.13 519.32 180.03 519.23 172.93 519.44 165.83 519.37 158.73 519.42 151.63 519.25 144.52 519.66 137.41 518.03 134.3 515.34 133.18 508.25 132.89 501.16 132.84 494.07 132.82 486.98 133.28 479.89 132.88 472.81 133.17 465.72 133.15 458.63 133.03 451.55 133.03 444.46 133.11 437.38 132.99 430.3 132.95 428.02 132.86 423.97 137.39 424.11 144.64 423.9 151.89 423.95 159.14 423.64 166.39 423.6 173.64 423.44 180.89 423.59 188.14 423.58 195.39 423.53 202.64 423.54 209.9 423.29 217.15 423.33 224.4 423.1 231.66 423.34 238.92 421.69 244.45 417.29 248.03 410.81 252.15 405.6 257.67 403 264.68 407.87 272.06 415.89 276.1 421.08 279.77 422.79 285.95 422.52 293.3 422.76 300.64 422.54 307.99 422.53 315.33 422.35 322.68 422.36 330.02 422.25 337.37 422.35 344.71 421.97 352.05 421.89 359.4 422.24 366.75 421.9 374.1 421.78 381.45 421.9 388.8 423.25 392.12 426.23 393.15 433.64 392.79 441 391.87 448.41 391.59 455.79 390.78 463.2 390.46 470.6 389.88 477.99 389.31 485.41 389.25 492.82 389.02 500.23 388.63 507.64 388.37 515.06 388.33 519.07 383.88 519.03 382.92 519.12 375.73 518.83 368.54 519.11 361.36 519.16 354.17 518.88 346.98 518.87 339.79 519.37 332.6 519.22 325.41 519.05 318.23 519.11 311.04 519.12 303.85 518.94 296.65 519.01 289.46 519.27 282.26 520.87 276.81 524.88 272.67 530.51 269.93 534.84 265.43 537.25 259.75 534.81 254.13 530.4 249.81 525.1 246.51"/></svg>
